<svg width="79" height="78" viewBox="0 0 79 78" fill="none" xmlns="http://www.w3.org/2000/svg">
<path d="M11.8768 12.9342C12.3149 12.6534 12.6773 12.4198 12.964 12.2334C13.2526 12.0366 13.4859 11.8776 13.6639 11.7562L14.1521 11.4234L16.8967 9.55213C16.9927 9.66656 17.0835 9.78001 17.1692 9.89248C17.2568 9.99463 17.3299 10.0887 17.3885 10.1746C17.4597 10.279 17.5215 10.3763 17.574 10.4664C17.6265 10.5566 17.68 10.655 17.7347 10.7616C17.7811 10.8559 17.8316 10.9564 17.8863 11.063C17.941 11.1696 17.9886 11.2856 18.029 11.4109C17.717 11.1379 17.4287 10.9657 17.1641 10.8943C16.9057 10.8186 16.6756 10.7911 16.4738 10.8118C16.2391 10.8369 16.0245 10.9113 15.83 11.0349C15.5866 11.2188 15.4048 11.3743 15.2845 11.5013C15.1642 11.6282 15.083 11.7466 15.0408 11.8563C14.9987 11.9659 14.9812 12.0723 14.9885 12.1752C14.9977 12.2679 15.0101 12.3719 15.0257 12.4871C15.0391 12.5859 15.0828 12.7225 15.1568 12.897C15.214 13.0468 15.3026 13.2428 15.4226 13.4847C15.5487 13.7225 15.7158 14.0269 15.9237 14.3978C16.056 14.2356 16.1566 14.0996 16.2255 13.9896C16.3006 13.8755 16.3584 13.7821 16.3988 13.7096C16.4413 13.6267 16.4673 13.5594 16.4771 13.5078C16.4766 13.4542 16.4674 13.3615 16.4495 13.2298C16.4277 13.1187 16.3973 12.9686 16.3582 12.7794C16.3253 12.586 16.267 12.3289 16.1833 12.0082C16.3881 12.2823 16.5554 12.5145 16.6852 12.7049C16.8108 12.8891 16.9164 13.0374 17.0021 13.1499C17.0942 13.2849 17.1705 13.3903 17.2311 13.4659L17.4697 13.8159C17.5576 13.9449 17.6769 14.1199 17.8276 14.3409C17.9803 14.5516 18.1758 14.8186 18.4141 15.1418C18.1855 14.9648 17.9966 14.8328 17.8473 14.7457C17.6999 14.6483 17.5817 14.5805 17.4927 14.5423C17.3892 14.4959 17.3085 14.47 17.2507 14.4644C17.1994 14.4814 17.1327 14.5089 17.0506 14.5468C16.9789 14.5868 16.8908 14.6423 16.7865 14.7135C16.6882 14.7804 16.5728 14.8816 16.4402 15.017C16.6521 15.3672 16.8353 15.6425 16.9899 15.8429C17.1465 16.033 17.2778 16.1728 17.3838 16.2624C17.5024 16.3704 17.6021 16.4374 17.6827 16.4634C17.7757 16.4809 17.9176 16.4516 18.1085 16.3755C18.2952 16.2931 18.4908 16.1777 18.6954 16.0293C18.9019 15.8705 19.0948 15.685 19.274 15.4729C19.4531 15.2608 19.5806 15.0255 19.6562 14.7671C19.7056 14.5625 19.7433 14.321 19.7692 14.0424C19.7874 13.8052 19.7906 13.5197 19.7789 13.1859C19.7733 12.8479 19.7312 12.4629 19.6525 12.0309C19.8163 12.324 19.9549 12.5668 20.0682 12.7593C20.1834 12.9416 20.2726 13.0922 20.3357 13.2111C20.4113 13.3484 20.4691 13.4529 20.509 13.5246C20.5592 13.5983 20.6212 13.709 20.6948 13.8566C20.7621 13.9816 20.8494 14.1559 20.9569 14.3795C21.0663 14.5927 21.2042 14.8675 21.3705 15.2038C21.0861 15.4067 20.817 15.5991 20.5634 15.7811C20.3055 15.9569 20.0804 16.1148 19.8881 16.2549C19.6589 16.4201 19.4482 16.5728 19.2559 16.7129C19.0533 16.851 18.8355 17.0131 18.6024 17.1989C18.3959 17.3577 18.1537 17.5499 17.8757 17.7754C17.6038 17.9967 17.3076 18.2481 16.9869 18.5297C16.7329 18.0913 16.4865 17.6837 16.2476 17.3069C16.0107 16.9198 15.799 16.5829 15.6126 16.2963C15.3927 15.9605 15.1834 15.6535 14.9846 15.3753C14.5339 14.6482 14.1323 14.0856 13.7799 13.6873C13.4274 13.2891 13.1724 13.0536 13.015 12.9811C12.9489 12.9632 12.8611 12.9466 12.7517 12.9313C12.663 12.9198 12.5464 12.9138 12.4022 12.9132C12.2579 12.9127 12.0827 12.9197 11.8768 12.9342Z" fill="black"/>
<path d="M24.2648 4.9749C24.3978 4.92691 24.5396 4.87116 24.6902 4.80765C24.8203 4.75281 24.969 4.69417 25.1362 4.63174C25.3074 4.55957 25.4826 4.47767 25.6617 4.38604C25.5291 4.53064 25.4315 4.70083 25.3689 4.89659C25.3062 5.09235 25.2675 5.27801 25.2528 5.45357C25.2291 5.66517 25.2254 5.87641 25.2417 6.08728C25.2537 6.21128 25.3086 6.41799 25.4064 6.7074C25.5013 6.98997 25.6198 7.31904 25.762 7.69459C25.911 8.06726 26.0722 8.45902 26.2454 8.86989C26.4186 9.28076 26.588 9.67306 26.7536 10.0468C26.9163 10.4137 27.0651 10.7381 27.2 11.0199C27.335 11.3017 27.4373 11.4965 27.5069 11.6043C27.592 11.7297 27.6811 11.8454 27.7741 11.9513C27.8545 12.0464 27.9467 12.1407 28.0505 12.234C28.1515 12.3204 28.2575 12.3806 28.3685 12.4144L27.52 13.3286C27.4335 13.2764 27.3558 13.2164 27.2869 13.1486C27.2209 13.0877 27.1646 13.0308 27.1181 12.9778C27.059 12.9141 27.013 12.8528 26.9802 12.794C26.9318 12.7176 26.8806 12.6344 26.8265 12.5443C26.7695 12.4474 26.712 12.3587 26.6539 12.2783C26.5998 12.1882 26.5563 12.1138 26.5235 12.0551C26.4907 11.9963 26.4748 11.9587 26.4759 11.9421C26.477 11.9255 26.4618 12.0045 26.4306 12.1789C26.3964 12.3466 26.3278 12.5569 26.2248 12.81C26.1258 13.0534 25.9842 13.3107 25.8001 13.5818C25.6131 13.8461 25.3708 14.0652 25.0731 14.2391C24.7686 14.4158 24.4448 14.4798 24.1016 14.4309C23.7652 14.3791 23.4391 14.2464 23.1233 14.0328C22.8045 13.8123 22.5115 13.5285 22.2443 13.1815C21.981 12.8248 21.773 12.4366 21.6204 12.0171C21.5186 11.7374 21.4777 11.4683 21.4978 11.2099C21.515 10.9445 21.5726 10.6985 21.6705 10.4717C21.7725 10.2352 21.8996 10.0203 22.052 9.82704C22.2084 9.62403 22.3666 9.44445 22.5265 9.2883C22.6934 9.12926 22.8552 8.99654 23.0119 8.89014C23.1687 8.78374 23.2955 8.70204 23.3925 8.64504C23.5129 8.58624 23.6619 8.54761 23.8396 8.52915C23.9939 8.5125 24.1802 8.51459 24.3987 8.53541C24.624 8.55334 24.8901 8.61055 25.1969 8.70703C24.8671 8.03957 24.5985 7.50762 24.3911 7.11119C24.1808 6.70791 24.0123 6.40392 23.8857 6.19922C23.7418 5.95344 23.6359 5.78839 23.5681 5.70406C23.505 5.65002 23.4316 5.6003 23.348 5.55492C23.2769 5.52034 23.1922 5.49154 23.0938 5.46851C22.9993 5.43574 22.897 5.42245 22.7867 5.42862C22.9791 5.38781 23.1604 5.33961 23.3306 5.28403C23.5007 5.22845 23.6571 5.17864 23.7998 5.1346C23.9631 5.08191 24.1181 5.02867 24.2648 4.9749ZM23.3016 9.89304C23.1917 9.99581 23.1202 10.1227 23.0871 10.2738C23.0609 10.4219 23.0584 10.5883 23.0798 10.7729C23.0982 10.9506 23.1361 11.1362 23.1935 11.3297C23.2549 11.5136 23.3182 11.6925 23.3835 11.8666C23.4528 12.0309 23.5163 12.1816 23.5741 12.3185C23.6318 12.4555 23.6751 12.5582 23.7039 12.6267C23.7213 12.6678 23.7599 12.7402 23.8197 12.844C23.8836 12.9381 23.9709 13.0303 24.0816 13.1207C24.1894 13.2043 24.3168 13.2675 24.4639 13.3104C24.6179 13.3503 24.7907 13.3299 24.9824 13.2491C25.1342 13.169 25.2788 13.0435 25.4165 12.8725C25.5393 12.724 25.6625 12.5188 25.7861 12.2571C25.9136 11.9856 26.0216 11.6296 26.11 11.189C26.004 10.9757 25.9172 10.7985 25.8498 10.6576C25.7891 10.5138 25.7366 10.3989 25.6923 10.3127C25.6421 10.2129 25.6041 10.1322 25.5781 10.0705L25.5131 9.91646C25.4958 9.87537 25.477 9.83086 25.4568 9.78293C25.4366 9.73499 25.4213 9.68904 25.4108 9.64507C25.1614 9.58894 24.9411 9.54469 24.75 9.51232C24.5629 9.47023 24.3874 9.45552 24.2234 9.4682C24.0633 9.47115 23.9094 9.5078 23.7616 9.57815C23.6178 9.63877 23.4645 9.74373 23.3016 9.89304Z" fill="black"/>
<path d="M28.7718 7.13498C28.9686 7.13311 29.1383 7.12912 29.2812 7.12299C29.4298 7.10811 29.5566 7.09764 29.6615 7.0916C29.781 7.08261 29.8852 7.07292 29.974 7.06253C30.0629 7.05215 30.1664 7.03881 30.2844 7.02254C30.4825 6.99007 30.7593 6.93411 31.1147 6.85468C30.9006 6.88281 30.7441 6.97131 30.6453 7.12017C30.5523 7.26027 30.4921 7.41269 30.4648 7.57744C30.4288 7.77426 30.4314 7.99359 30.4727 8.23544C30.5229 8.55888 30.5891 8.84876 30.6713 9.1051C30.7592 9.35267 30.8653 9.55868 30.9895 9.72311C31.1196 9.87878 31.2699 9.98486 31.4405 10.0413C31.6097 10.0905 31.8108 10.0726 32.0438 9.98763C32.2768 9.90262 32.4419 9.78204 32.5393 9.62589C32.6424 9.46099 32.7032 9.27432 32.7217 9.06587C32.7388 8.85014 32.7252 8.61407 32.6809 8.35766C32.644 8.09978 32.6011 7.8317 32.5525 7.55344C32.4965 7.27665 32.4531 7.08072 32.4223 6.96565C32.3972 6.84182 32.3774 6.76243 32.3628 6.72748C32.3481 6.69254 32.3342 6.68018 32.3211 6.69041C32.3066 6.69335 32.2847 6.67882 32.2555 6.64682C32.235 6.62063 32.2073 6.59591 32.1722 6.57266C32.1445 6.54795 32.1087 6.52106 32.065 6.492C32.0197 6.45566 31.9708 6.42005 31.9183 6.38518C32.1091 6.35418 32.2781 6.3276 32.4253 6.30543C32.5782 6.27451 32.7064 6.25239 32.8099 6.23906C32.9279 6.22278 33.0314 6.20945 33.1202 6.19906C33.2018 6.19015 33.3097 6.17972 33.4437 6.16779C33.5559 6.16027 33.7009 6.14612 33.8787 6.12535C34.0564 6.10458 34.2684 6.08447 34.5147 6.06501C34.3545 6.1353 34.2308 6.21717 34.1436 6.31062C34.0563 6.40408 33.9909 6.49311 33.9474 6.57773C33.898 6.67111 33.8683 6.76809 33.8583 6.86867C33.8615 6.99691 33.8998 7.1863 33.9732 7.43682C34.0334 7.65968 34.1324 7.96188 34.2702 8.34344C34.408 8.72499 34.6036 9.22375 34.857 9.83971L34.0976 10.5277L33.6291 9.1099C33.49 9.50952 33.3201 9.83196 33.1195 10.0772C32.9247 10.3137 32.7342 10.4963 32.5479 10.6249C32.3281 10.7755 32.1068 10.8809 31.884 10.9411C31.5853 11.0015 31.3231 11.0355 31.0972 11.0433C30.8771 11.0423 30.684 11.0245 30.5178 10.9898C30.3515 10.9552 30.213 10.9074 30.1021 10.8464C29.997 10.7767 29.9138 10.7025 29.8524 10.6239C29.7136 10.4625 29.6119 10.2404 29.5472 9.95782C29.481 9.66793 29.4338 9.37801 29.4055 9.08804C29.3757 8.79079 29.3547 8.5183 29.3426 8.27057C29.3304 8.02284 29.3082 7.85674 29.2759 7.77228C29.2481 7.70966 29.2116 7.64124 29.1662 7.56701C29.1238 7.50734 29.0727 7.44187 29.0128 7.37058C28.9514 7.292 28.8711 7.21347 28.7718 7.13498Z" fill="black"/>
<path d="M36.2731 3.30859C36.7189 3.34574 37.1091 3.36804 37.4435 3.37547C37.7853 3.3829 38.0752 3.38662 38.313 3.38662C38.5879 3.38662 38.8257 3.37919 39.0264 3.36432C39.2344 3.34203 39.5057 3.3123 39.8401 3.27515C40.1225 3.23799 40.4866 3.18969 40.9325 3.13024C41.3784 3.06335 41.9209 2.97789 42.56 2.87386C42.4782 3.00019 42.4076 3.13395 42.3482 3.27515C42.2961 3.40891 42.2516 3.53153 42.2144 3.643C42.1772 3.77676 42.1438 3.90681 42.1141 4.03314C42.0918 4.17434 42.0658 4.34897 42.036 4.55705C42.0063 4.7354 41.9692 4.96206 41.9246 5.23701C41.8874 5.50454 41.8391 5.82409 41.7797 6.19565C41.5567 5.61601 41.3301 5.17013 41.0997 4.85802C40.8768 4.5459 40.6687 4.31553 40.4755 4.16691C40.2525 3.99598 40.0407 3.89938 39.8401 3.87708C39.5503 3.87708 39.3125 3.93282 39.1267 4.04429C38.9409 4.15576 38.7886 4.30067 38.6697 4.47902C38.5582 4.64994 38.4727 4.83944 38.4133 5.04752C38.3538 5.24816 38.313 5.44509 38.2907 5.63831C38.2684 5.82409 38.2535 5.99129 38.2461 6.13992C38.2386 6.28111 38.2312 6.37772 38.2238 6.42974C38.4839 6.41488 38.7031 6.3963 38.8815 6.37401C39.0598 6.35171 39.201 6.32942 39.305 6.30712C39.4314 6.2774 39.5317 6.24767 39.606 6.21795C39.7175 6.1585 39.8289 6.0879 39.9404 6.00616C40.037 5.93184 40.1373 5.84267 40.2414 5.73863C40.3529 5.63459 40.4495 5.50826 40.5312 5.35963C40.4866 5.62716 40.4457 5.8501 40.4086 6.02845C40.3789 6.2068 40.3529 6.348 40.3306 6.45203C40.3008 6.57837 40.2823 6.67497 40.2748 6.74186C40.26 6.80874 40.2414 6.90163 40.2191 7.02053C40.1968 7.12457 40.1708 7.25833 40.1411 7.42182C40.1113 7.58531 40.0779 7.78967 40.0407 8.0349C39.9516 7.87885 39.8587 7.75251 39.7621 7.65591C39.6655 7.55187 39.5763 7.47012 39.4945 7.41067C39.3979 7.34379 39.305 7.29177 39.2159 7.25462C39.1193 7.22489 39.0152 7.19517 38.9037 7.16544C38.8071 7.14315 38.692 7.12085 38.5582 7.09856C38.4319 7.06883 38.2944 7.04282 38.1458 7.02053C38.1606 7.42182 38.1829 7.76738 38.2126 8.0572C38.2424 8.33959 38.2684 8.57739 38.2907 8.77061C38.3204 8.99354 38.3501 9.17933 38.3798 9.32795C38.417 9.47658 38.4764 9.63635 38.5582 9.80727C38.6251 9.9559 38.718 10.1268 38.8369 10.32C38.9632 10.5058 39.123 10.7065 39.3162 10.922C39.1676 10.8848 39.0115 10.8588 38.848 10.8439C38.6845 10.8291 38.5396 10.8179 38.4133 10.8105C38.2572 10.8031 38.1086 10.8031 37.9674 10.8105C37.8188 10.8179 37.6553 10.8328 37.4769 10.8551C37.3283 10.87 37.1574 10.8922 36.9642 10.922C36.771 10.9517 36.5666 10.9851 36.3511 11.0223C36.4774 10.896 36.5815 10.7696 36.6632 10.6433C36.7449 10.517 36.8044 10.4055 36.8416 10.3089C36.8861 10.1974 36.9159 10.0897 36.9307 9.98563C36.9382 9.89645 36.9419 9.70324 36.9419 9.40598C36.9419 9.1013 36.9382 8.74831 36.9307 8.34702C36.9233 7.9383 36.9122 7.50728 36.8973 7.05397C36.8824 6.60066 36.8676 6.17708 36.8527 5.78322C36.8378 5.38193 36.8193 5.04008 36.797 4.75769C36.7821 4.4753 36.7635 4.30438 36.7412 4.24493C36.7115 4.17062 36.6781 4.08516 36.6409 3.98855C36.5815 3.8325 36.4588 3.60584 36.2731 3.30859Z" fill="black"/>
<path d="M46.6948 10.0084C46.8987 10.0496 47.0925 10.066 47.2762 10.0577C47.4292 10.0507 47.5794 10.0204 47.7267 9.96677C47.8828 9.90734 47.9996 9.79827 48.0772 9.63958C48.217 9.69816 48.3356 9.74869 48.4332 9.79116C48.5322 9.82634 48.6167 9.85858 48.6866 9.88787C48.7623 9.92592 48.8285 9.95447 48.8853 9.97354C48.9407 9.99989 49.0069 10.0284 49.0841 10.0592C49.154 10.0885 49.2377 10.1244 49.3353 10.1668C49.4416 10.2035 49.5646 10.2511 49.7044 10.3097C49.5981 10.2731 49.483 10.2612 49.3591 10.274C49.2425 10.2883 49.1288 10.3071 49.018 10.3301C48.8911 10.3576 48.7693 10.3974 48.6526 10.4496C48.5782 10.4801 48.4885 10.5302 48.3834 10.5999C48.2856 10.6711 48.1522 10.7313 47.983 10.7805C47.8138 10.8297 47.5959 10.8577 47.3292 10.8644C47.0712 10.8654 46.747 10.8188 46.3566 10.7247C45.8861 10.6144 45.5061 10.4504 45.2165 10.2326C44.9284 10.0076 44.7089 9.76231 44.5578 9.49675C44.4083 9.22391 44.3171 8.9439 44.2841 8.65672C44.2512 8.36954 44.2547 8.10867 44.2945 7.87411C44.3343 7.63956 44.4529 7.40953 44.6501 7.18404C44.8473 6.95855 45.0984 6.76669 45.4033 6.60847C45.7155 6.45172 46.0742 6.34607 46.4795 6.29153C46.8862 6.2297 47.3154 6.24443 47.767 6.33573C48.0293 6.38874 48.263 6.47011 48.4683 6.57984C48.6823 6.68376 48.87 6.80511 49.0315 6.9439C49.2003 7.08416 49.3406 7.23383 49.4525 7.39292C49.5659 7.54473 49.6567 7.69576 49.7248 7.84601C49.7916 8.00355 49.8422 8.16542 49.8769 8.33164C49.9086 8.47453 49.9258 8.63342 49.9283 8.80832C49.9309 8.98321 49.9072 9.15659 49.8573 9.32846C49.3008 9.23112 48.8506 9.15149 48.5068 9.08957C48.1703 9.02912 47.9073 8.97975 47.7179 8.94147L47.2262 8.84207L46.8548 8.76698C46.7237 8.74047 46.5517 8.70951 46.339 8.67409C46.1263 8.63867 45.8655 8.59733 45.5567 8.55005C45.5342 8.84877 45.5796 9.09298 45.6929 9.28268C45.8149 9.46656 45.9516 9.6155 46.1029 9.72949C46.2746 9.85518 46.4719 9.94814 46.6948 10.0084ZM46.109 7.84289C46.3392 7.90458 46.53 7.95453 46.6815 7.99274C46.8403 8.03241 46.9699 8.0662 47.0704 8.0941C47.1782 8.12347 47.2649 8.14478 47.3304 8.15804L47.6036 8.21326C47.7857 8.25007 48.1266 8.30761 48.6263 8.38589C48.6692 8.06098 48.6494 7.80298 48.5667 7.61188C48.4913 7.42227 48.3998 7.27488 48.2922 7.16972C48.1641 7.05286 48.0142 6.96948 47.8423 6.91957C47.3674 6.83115 46.9943 6.85806 46.7229 7.00033C46.4588 7.14406 46.2542 7.42492 46.109 7.84289Z" fill="black"/>
<path d="M53.6822 12.2401C53.8739 12.3209 54.0606 12.3755 54.2423 12.4036C54.3937 12.4271 54.5469 12.4272 54.7019 12.4038C54.8666 12.3765 55.0028 12.2928 55.1102 12.1526C55.2356 12.2377 55.342 12.3107 55.4292 12.3717C55.5193 12.4258 55.5957 12.4741 55.6584 12.5167C55.725 12.569 55.7843 12.6101 55.8362 12.64C55.8852 12.6768 55.9445 12.718 56.014 12.7634C56.0768 12.806 56.1517 12.8577 56.2389 12.9187C56.3359 12.9757 56.447 13.0467 56.5724 13.1319C56.4755 13.0749 56.365 13.0404 56.241 13.0284C56.1239 13.0194 56.0087 13.0152 55.8955 13.0159C55.7658 13.0176 55.6385 13.0325 55.5138 13.0606C55.4348 13.0757 55.3369 13.107 55.2201 13.1545C55.1102 13.205 54.9674 13.2375 54.7918 13.2522C54.6163 13.2669 54.3971 13.2512 54.1344 13.2049C53.8813 13.1547 53.5728 13.0448 53.2088 12.8753C52.7695 12.6739 52.4295 12.4379 52.1888 12.1671C51.951 11.8894 51.7844 11.6055 51.689 11.3152C51.5965 11.0182 51.5625 10.7256 51.5871 10.4376C51.6118 10.1496 51.6669 9.89461 51.7524 9.67259C51.8379 9.45058 51.9997 9.2486 52.2376 9.06666C52.4756 8.88472 52.7597 8.74641 53.09 8.65174C53.427 8.55996 53.7996 8.52749 54.2076 8.55433C54.6186 8.57433 55.0363 8.67381 55.4609 8.85278C55.7074 8.95669 55.9204 9.08277 56.0998 9.23099C56.289 9.37526 56.449 9.53141 56.5798 9.69944C56.7174 9.87036 56.8253 10.0449 56.9035 10.223C56.9845 10.3942 57.0436 10.5603 57.0806 10.721C57.1148 10.8887 57.1324 11.0574 57.1334 11.2272C57.1362 11.3735 57.1216 11.5327 57.0894 11.7046C57.0573 11.8765 56.9997 12.0418 56.9167 12.2004C56.3905 11.9947 55.965 11.8274 55.6403 11.6986C55.3224 11.5727 55.0745 11.4722 54.8964 11.3971L54.4342 11.2023L54.085 11.0551C53.9617 11.0031 53.7993 10.9387 53.5979 10.8618C53.3964 10.785 53.149 10.6928 52.8556 10.5852C52.7744 10.8736 52.7705 11.1219 52.8439 11.3303C52.9271 11.5347 53.0316 11.7078 53.1573 11.8495C53.3007 12.0067 53.4757 12.1369 53.6822 12.2401ZM53.5371 10.0015C53.7505 10.1076 53.9276 10.1944 54.0685 10.2618C54.2163 10.3322 54.3367 10.391 54.4296 10.4382C54.5295 10.4884 54.6102 10.5265 54.6718 10.5524L54.9286 10.6607C55.0998 10.7328 55.4226 10.8568 55.8969 11.0325C56.0033 10.7226 56.035 10.4658 55.9918 10.2621C55.9555 10.0613 55.895 9.89868 55.8103 9.77429C55.708 9.63438 55.5776 9.52294 55.419 9.43997C54.971 9.25919 54.5999 9.21163 54.3057 9.29731C54.0184 9.38586 53.7622 9.62061 53.5371 10.0015Z" fill="black"/>
<path d="M65.5168 11.3507C65.6292 11.4364 65.753 11.5253 65.8881 11.6174C66.0048 11.6969 66.1347 11.79 66.2778 11.8966C66.4313 12.0013 66.5952 12.104 66.7693 12.2047C66.5759 12.1718 66.38 12.1821 66.1816 12.2357C65.9831 12.2893 65.8062 12.3575 65.6507 12.4404C65.4601 12.5353 65.2807 12.6468 65.1124 12.7749C65.0147 12.8522 64.8708 13.0105 64.6808 13.2497C64.4949 13.4827 64.2828 13.7608 64.0445 14.084C63.8123 14.4114 63.5706 14.7593 63.3194 15.1277C63.0683 15.4961 62.8306 15.8512 62.6065 16.1931C62.3866 16.5289 62.1949 16.8299 62.0313 17.0961C61.8678 17.3624 61.7596 17.554 61.7069 17.6709C61.6477 17.8105 61.5989 17.948 61.5604 18.0837C61.5241 18.2029 61.4949 18.3314 61.4729 18.4692C61.455 18.601 61.462 18.7227 61.4938 18.8343L60.2656 18.6175C60.2625 18.5164 60.2707 18.4186 60.2903 18.324C60.3056 18.2355 60.3229 18.1574 60.3422 18.0896C60.3637 18.0053 60.3902 17.9334 60.4217 17.874C60.4597 17.7919 60.5018 17.7037 60.5481 17.6094C60.5986 17.5089 60.6419 17.4125 60.6779 17.3201C60.7242 17.2258 60.7632 17.1489 60.7947 17.0894C60.8262 17.03 60.8492 16.9962 60.8638 16.9881C60.8783 16.98 60.8038 17.0102 60.6402 17.0786C60.4809 17.1408 60.2669 17.1973 59.9985 17.2481C59.7403 17.297 59.4474 17.3176 59.1197 17.3101C58.7963 17.2964 58.4808 17.2117 58.1732 17.056C57.8595 16.8961 57.6301 16.6587 57.485 16.3439C57.346 16.0333 57.2805 15.6874 57.2886 15.3061C57.3009 14.9188 57.3803 14.5187 57.5268 14.1059C57.6836 13.6912 57.8968 13.3059 58.1664 12.95C58.3462 12.7128 58.55 12.5325 58.778 12.4092C59.0102 12.2797 59.2482 12.1945 59.4918 12.1538C59.7458 12.1111 59.9953 12.1013 60.2403 12.1245C60.4957 12.1457 60.7324 12.1811 60.9503 12.2308C61.1744 12.2846 61.3737 12.3485 61.5481 12.4225C61.7226 12.4965 61.86 12.5587 61.9605 12.6092C62.0752 12.6784 62.1885 12.7827 62.3004 12.9219C62.3981 13.0425 62.4975 13.2002 62.5985 13.395C62.7057 13.594 62.802 13.8485 62.8874 14.1585C63.2692 13.5194 63.5703 13.0052 63.7908 12.6159C64.0154 12.2204 64.1794 11.9139 64.2826 11.6965C64.411 11.4423 64.4922 11.2638 64.5263 11.1611C64.5374 11.0788 64.5394 10.9902 64.5321 10.8953C64.5226 10.8168 64.5009 10.73 64.4668 10.6349C64.4431 10.5378 64.3987 10.4445 64.3337 10.3552C64.4724 10.4948 64.6112 10.6209 64.7502 10.7337C64.8892 10.8464 65.0159 10.9508 65.1304 11.0468C65.2632 11.1554 65.392 11.2567 65.5168 11.3507ZM60.8628 13.21C60.7169 13.1734 60.5715 13.1822 60.4266 13.2363C60.2879 13.2947 60.1468 13.3829 60.0034 13.5009C59.8641 13.6128 59.7288 13.7454 59.5973 13.8986C59.4762 14.0499 59.3603 14.2002 59.2495 14.3495C59.149 14.4969 59.0569 14.632 58.9732 14.7548C58.8894 14.8776 58.8267 14.9697 58.7848 15.0311C58.7597 15.0679 58.7198 15.1396 58.6651 15.2462C58.6207 15.3509 58.5906 15.4743 58.5746 15.6163C58.5629 15.7522 58.579 15.8936 58.6228 16.0404C58.6728 16.1914 58.7837 16.3255 58.9556 16.4427C59.1052 16.5267 59.2891 16.5801 59.5074 16.603C59.6988 16.6256 59.938 16.6178 60.2249 16.5796C60.5221 16.5394 60.8798 16.4369 61.2979 16.2723C61.4195 16.0674 61.5213 15.8984 61.603 15.7653C61.691 15.6363 61.759 15.5299 61.8073 15.4459C61.864 15.3496 61.9111 15.2738 61.9488 15.2185L62.043 15.0804C62.0681 15.0436 62.0953 15.0036 62.1246 14.9607C62.1539 14.9177 62.1842 14.8799 62.2155 14.8472C62.1273 14.6072 62.045 14.3982 61.9685 14.2201C61.9023 14.0401 61.8194 13.8846 61.7198 13.7538C61.6305 13.6209 61.5162 13.5115 61.3769 13.4256C61.248 13.3376 61.0766 13.2658 60.8628 13.21Z" fill="black"/>
<path d="M71.9295 33.0568L75.7633 32.4534L75.9407 33.581C75.9987 33.9493 75.9511 34.2341 75.7979 34.4354C75.6491 34.6399 75.4243 34.7658 75.1236 34.8131L74.9996 34.8326C74.8342 34.8586 74.6817 34.8441 74.5421 34.789C74.4024 34.734 74.2838 34.641 74.1862 34.51C74.1536 34.7192 74.072 34.8861 73.9414 35.0107C73.8152 35.1384 73.6505 35.2182 73.4476 35.2502L73.3236 35.2697C73.0153 35.3182 72.7531 35.267 72.5368 35.1162C72.3248 34.9685 72.1889 34.7049 72.1292 34.3253L71.9295 33.0568ZM75.4897 33.652L75.3895 33.0149L74.1773 33.2056L74.2776 33.8427C74.3072 34.0306 74.3763 34.1642 74.4851 34.2434C74.5982 34.3257 74.7393 34.3536 74.9084 34.327L75.0437 34.3057C75.2091 34.2796 75.3311 34.2104 75.4097 34.0979C75.4926 33.9885 75.5193 33.8399 75.4897 33.652ZM73.8487 34.0546L73.7263 33.2766L72.4521 33.4772L72.5746 34.2552C72.6059 34.4544 72.68 34.5949 72.7969 34.6766C72.9144 34.7621 73.0633 34.7907 73.2437 34.7623L73.379 34.741C73.5519 34.7138 73.6811 34.6415 73.7666 34.524C73.8527 34.4103 73.8801 34.2539 73.8487 34.0546Z" fill="black"/>
<path d="M72.1168 37.5871C71.7698 37.4791 71.5148 37.3388 71.3518 37.1663C71.1852 36.9978 71.0956 36.7557 71.083 36.4402L71.5449 36.4218C71.5539 36.5509 71.5754 36.6605 71.6094 36.7505C71.6436 36.8444 71.7097 36.9255 71.8076 36.994C71.9019 37.0664 72.0416 37.1332 72.2268 37.1943L72.3716 37.2457L75.1712 36.1177L75.1903 36.5967L73.8348 37.1247L72.9681 37.4504L73.8574 37.6949L75.2502 38.1022L75.2685 38.5641L72.1168 37.5871Z" fill="black"/>
<path d="M71.6542 46.4847C71.5905 46.2552 71.5816 46.0228 71.6276 45.7875C71.667 45.5859 71.7391 45.4352 71.8438 45.3355C71.9479 45.2395 72.0737 45.1808 72.2214 45.1592C72.3683 45.1414 72.5258 45.1489 72.6938 45.1818L74.2062 45.4773L74.3003 44.9956L74.7036 45.0744L74.6095 45.5561L75.3825 45.7071L75.2927 46.1664L74.5197 46.0154L74.3424 46.9228L73.9391 46.844L74.1164 45.9366L72.6209 45.6444C72.4267 45.6064 72.2861 45.6119 72.199 45.6608C72.1149 45.7141 72.0594 45.8099 72.0324 45.9481C72.0192 46.0153 72.0132 46.0858 72.0143 46.1597C72.0183 46.238 72.0325 46.3241 72.0568 46.418L71.6542 46.4847Z" fill="black"/>
<path d="M72.9602 50.3175C72.9926 50.216 73.0055 50.0883 72.9987 49.9344C72.9909 49.7841 72.9397 49.588 72.8452 49.3461L70.9044 48.7258L71.0469 48.2801L75.0698 49.5657L74.9274 50.0115L73.2366 49.4712C73.3359 49.7106 73.3902 49.9157 73.3995 50.0864C73.4089 50.2572 73.3904 50.415 73.344 50.56C73.2641 50.8101 73.1236 50.9749 72.9224 51.0544C72.7237 51.1387 72.4794 51.1345 72.1895 51.0418L70.352 50.4546L70.4944 50.0088L72.2667 50.5752C72.6364 50.6933 72.8675 50.6074 72.9602 50.3175Z" fill="black"/>
<path d="M69.1625 53.5633C69.1569 53.3728 69.1756 53.1933 69.2186 53.0248C69.2581 52.8547 69.3078 52.7038 69.3675 52.5721C69.5356 52.2013 69.767 51.972 70.0616 51.8842C70.3547 51.7999 70.6849 51.8409 71.0522 52.0075L71.3641 52.1489C71.721 52.3107 71.966 52.5304 72.0992 52.808C72.2308 53.0891 72.2211 53.396 72.0703 53.7287C71.9902 53.9054 71.8807 54.05 71.742 54.1626C71.6051 54.2802 71.4443 54.3493 71.2595 54.3699C71.0765 54.3956 70.8724 54.3574 70.6472 54.2552C70.5017 54.1893 70.3448 54.0931 70.1765 53.9666L70.8717 52.4332L70.8613 52.4285C70.598 52.3091 70.3743 52.2725 70.1905 52.3186C70.0051 52.3682 69.8574 52.5143 69.7474 52.7569C69.6971 52.8678 69.656 52.9954 69.624 53.1396C69.5905 53.2873 69.5741 53.4387 69.5748 53.5936L69.1625 53.5633ZM71.6961 53.559C71.7872 53.358 71.7905 53.1757 71.7059 53.012C71.6233 52.8534 71.4665 52.7154 71.2356 52.5982L70.7077 53.7625C70.7653 53.8012 70.8219 53.8331 70.8773 53.8583C71.0714 53.9463 71.2386 53.9552 71.379 53.8852C71.5212 53.8202 71.6269 53.7114 71.6961 53.559Z" fill="black"/>
<path d="M65.835 59.287C65.6884 59.4766 65.6161 59.654 65.6182 59.8191C65.6233 59.9866 65.7056 60.1321 65.8651 60.2555C65.9975 60.3579 66.1368 60.4079 66.283 60.4055C66.4268 60.4062 66.5845 60.3453 66.756 60.2231L67.1472 59.9412C67.3934 59.766 67.6276 59.6778 67.8498 59.6766C68.0751 59.6776 68.29 59.7573 68.4947 59.9156C68.6512 60.0367 68.7693 60.1762 68.8492 60.3341C68.9267 60.4951 68.9507 60.6724 68.9212 60.866C68.8893 61.0627 68.7873 61.2724 68.615 61.4951C68.5102 61.6305 68.3854 61.7576 68.2406 61.8765C68.0988 61.9977 67.9362 62.1052 67.7529 62.1991L67.5121 61.8108C67.687 61.7153 67.8334 61.6193 67.9513 61.5229C68.0699 61.4318 68.1699 61.3336 68.2514 61.2282C68.3841 61.0567 68.4516 60.8948 68.4538 60.7426C68.4568 60.5958 68.377 60.4595 68.2145 60.3338C68.0971 60.243 67.9733 60.1978 67.8432 60.1982C67.7161 60.2008 67.564 60.2636 67.3872 60.3866L66.996 60.6684C66.5067 61.0211 66.0379 61.024 65.5894 60.6772C65.3306 60.477 65.1805 60.2358 65.139 59.9536C65.1006 59.6737 65.2152 59.3607 65.4829 59.0146C65.5923 58.8731 65.7253 58.7355 65.8818 58.6016C66.0389 58.473 66.2203 58.3536 66.4259 58.2432L66.6657 58.6235C66.4701 58.7272 66.3083 58.8305 66.1805 58.9337C66.0503 59.0398 65.9351 59.1576 65.835 59.287Z" fill="black"/>
<path d="M62.0956 63.0347C62.1685 62.808 62.2888 62.6089 62.4565 62.4376C62.6002 62.2908 62.7432 62.2045 62.8856 62.1788C63.0252 62.1558 63.1627 62.1758 63.2979 62.239C63.4304 62.3048 63.5578 62.3976 63.6802 62.5174L64.7814 63.5954L65.1247 63.2446L65.4184 63.5321L65.075 63.8828L65.6378 64.4338L65.3105 64.7682L64.7476 64.2172L64.1009 64.8779L63.8072 64.5905L64.454 63.9298L63.3651 62.8638C63.2237 62.7254 63.1032 62.6527 63.0035 62.6457C62.904 62.6441 62.8049 62.6936 62.7065 62.7942C62.6586 62.8431 62.6148 62.8987 62.5751 62.961C62.5354 63.0287 62.5 63.1085 62.4686 63.2003L62.0956 63.0347Z" fill="black"/>
<path d="M59.2197 65.318L59.4708 65.6287C59.517 65.3712 59.5793 65.1667 59.6576 65.0154C59.7383 64.8671 59.8393 64.7438 59.9606 64.6458C60.1559 64.4879 60.3568 64.4308 60.5632 64.4743C60.772 64.5208 60.9709 64.661 61.1598 64.8948L62.3759 66.3995L62.0119 66.6937L60.8389 65.2422C60.7145 65.0883 60.5958 64.9959 60.4827 64.965C60.3691 64.9394 60.2575 64.9708 60.1481 65.0593C60.0652 65.1263 59.9887 65.2223 59.9186 65.3475C59.8485 65.4726 59.7868 65.6595 59.7333 65.9082L61.0176 67.4973L60.6536 67.7914L58.8779 65.5942L59.2197 65.318Z" fill="black"/>
<path d="M56.0177 67.451L56.228 67.784C56.2866 67.549 56.3587 67.3639 56.4444 67.2288C56.5289 67.0989 56.6355 66.9933 56.7641 66.9121C57.0183 66.7516 57.2755 66.7241 57.5357 66.8298C57.7927 66.9374 58.031 67.165 58.2504 67.5124L58.4272 67.7923C58.6405 68.1301 58.7265 68.4515 58.6852 68.7566C58.6407 69.0637 58.4576 69.3189 58.1359 69.5221C58.0426 69.581 57.9432 69.6303 57.8378 69.6699C57.7323 69.7095 57.6217 69.7411 57.5061 69.7646L58.2924 71.0096L57.8967 71.2595L55.6414 67.6887L56.0177 67.451ZM57.8402 67.7715C57.6818 67.5206 57.5263 67.36 57.3739 67.2897C57.2204 67.2247 57.0648 67.242 56.9071 67.3415C56.8139 67.4005 56.7316 67.4839 56.6603 67.5919C56.591 67.7032 56.5276 67.8805 56.4698 68.124L57.2744 69.3979C57.3941 69.3808 57.5025 69.3529 57.5995 69.3141C57.6986 69.2785 57.7899 69.2343 57.8735 69.1815C58.0923 69.0433 58.2083 68.8778 58.2215 68.685C58.2315 68.4942 58.1633 68.283 58.017 68.0513L57.8402 67.7715Z" fill="black"/>
<path d="M52.6683 69.3457C52.7865 69.1962 52.9163 69.0708 53.0575 68.9693C53.1971 68.8644 53.3321 68.7807 53.4625 68.7182C53.8296 68.5423 54.1542 68.5153 54.4364 68.6375C54.7151 68.7612 54.9417 69.005 55.116 69.3686L55.264 69.6774C55.4334 70.0308 55.4799 70.3567 55.4035 70.6549C55.3236 70.9548 55.119 71.1837 54.7896 71.3416C54.6146 71.4254 54.4378 71.4659 54.2591 71.4629C54.0787 71.465 53.9111 71.4146 53.7562 71.3116C53.5996 71.2137 53.4678 71.0532 53.3609 70.8302C53.2918 70.6861 53.2335 70.5115 53.1858 70.3065L54.7041 69.5788L54.6991 69.5685C54.5741 69.3077 54.4264 69.1359 54.2559 69.0531C54.082 68.9719 53.8749 68.9889 53.6347 69.104C53.5249 69.1566 53.4114 69.2279 53.2942 69.3179C53.1736 69.4095 53.0637 69.5148 52.9648 69.634L52.6683 69.3457ZM54.612 70.971C54.811 70.8756 54.9307 70.7381 54.9711 70.5583C55.0098 70.3837 54.9783 70.1773 54.8768 69.939L53.7239 70.4916C53.7432 70.5583 53.7661 70.6191 53.7924 70.674C53.8845 70.8661 54.0068 70.9805 54.1594 71.0171C54.3101 71.0587 54.461 71.0434 54.612 70.971Z" fill="black"/>
<path d="M50.1323 72.7283C50.2331 72.6937 50.3432 72.6278 50.4626 72.5305C50.5785 72.4344 50.7052 72.2762 50.8429 72.056L50.1814 70.1289L50.624 69.977L51.5412 72.649L51.1201 72.7936L50.9923 72.4211C50.8571 72.6485 50.7227 72.8193 50.5889 72.9336C50.4516 73.0492 50.311 73.1316 50.167 73.181C49.9187 73.2663 49.7026 73.252 49.5187 73.1381C49.3324 73.029 49.1899 72.8306 49.091 72.5427L48.4648 70.7181L48.9074 70.5662L49.5115 72.326C49.6375 72.693 49.8444 72.8272 50.1323 72.7283Z" fill="black"/>
<path d="M45.0151 71.6096C45.2007 71.4602 45.4106 71.36 45.6448 71.309C45.8456 71.2653 46.0125 71.2718 46.1455 71.3285C46.2749 71.3861 46.3787 71.4783 46.4569 71.6054C46.5315 71.7332 46.5869 71.8808 46.6234 72.0481L46.951 73.5538L47.4306 73.4494L47.518 73.851L47.0384 73.9553L47.2059 74.7249L46.7486 74.8244L46.5811 74.0549L45.6777 74.2515L45.5903 73.8499L46.4937 73.6533L46.1697 72.1643C46.1276 71.971 46.0669 71.8441 45.9875 71.7835C45.9052 71.7274 45.7953 71.7143 45.6577 71.7442C45.5908 71.7588 45.5237 71.7812 45.4563 71.8115C45.3859 71.8462 45.3125 71.8934 45.2359 71.9529L45.0151 71.6096Z" fill="black"/>
<path d="M37.7314 74.3781L38.6558 74.3952L38.7003 71.9814L39.1682 71.99L39.1237 74.4038L39.6145 74.4128L39.6069 74.8237L39.1162 74.8146L39.1075 75.2826C39.1043 75.4576 39.0728 75.6187 39.013 75.766C38.9493 75.9171 38.8501 76.037 38.7152 76.1259C38.5804 76.2147 38.4027 76.2571 38.182 76.253C38.0717 76.251 37.9559 76.2355 37.8347 76.2067C37.7096 76.1815 37.5942 76.1432 37.4886 76.0918L37.6271 75.7005C37.8197 75.7802 37.9883 75.8213 38.1329 75.824C38.2926 75.8269 38.4171 75.7855 38.5062 75.6996C38.5915 75.6136 38.6359 75.4737 38.6395 75.2796L38.6482 74.806L37.7238 74.789L37.7314 74.3781Z" fill="black"/>
<path d="M32.9027 73.0319L32.9487 72.6926C33.0029 72.2929 33.1493 71.9922 33.3878 71.7903C33.6226 71.5879 33.9304 71.5125 34.3112 71.5642C34.6882 71.6153 34.9648 71.7699 35.141 72.028C35.3172 72.2862 35.3782 72.615 35.324 73.0147L35.278 73.354C35.2248 73.7461 35.0808 74.0434 34.846 74.2458C34.607 74.4514 34.297 74.5284 33.9162 74.4768C33.5354 74.4251 33.2591 74.2686 33.0872 74.0072C32.911 73.7491 32.8495 73.424 32.9027 73.0319ZM33.3834 73.0971C33.3471 73.3648 33.379 73.5822 33.4792 73.7494C33.5789 73.9203 33.7438 74.0214 33.9738 74.0526C34.2 74.0833 34.3858 74.0298 34.5312 73.892C34.6723 73.7576 34.761 73.5565 34.7973 73.2888L34.8433 72.9495C34.8811 72.6705 34.8499 72.4474 34.7497 72.2802C34.6458 72.1125 34.4807 72.0134 34.2545 71.9827C34.0245 71.9515 33.8389 72.0031 33.6978 72.1376C33.5567 72.272 33.4673 72.4788 33.4294 72.7578L33.3834 73.0971Z" fill="black"/>
<path d="M29.1303 72.9606C29.2962 73.0031 29.4659 73.0152 29.6395 72.9969C29.8094 72.9777 30.0041 72.9078 30.2235 72.7874L30.7143 70.8746L31.1676 70.9909L30.4655 73.7274L30.0343 73.6167L30.1478 73.1745C29.9126 73.3105 29.7081 73.3956 29.5344 73.4295C29.357 73.4626 29.1835 73.4574 29.014 73.4139L29.1303 72.9606Z" fill="black"/>
<path d="M22.5704 67.6484C22.8086 67.6532 23.0338 67.7114 23.246 67.8229C23.4279 67.9185 23.5515 68.0307 23.617 68.1597C23.6791 68.2869 23.6993 68.4243 23.6776 68.5719C23.6525 68.7178 23.6002 68.8665 23.5205 69.0181L22.8037 70.3821L23.2382 70.6105L23.047 70.9742L22.6125 70.7459L22.2461 71.4431L21.8319 71.2254L22.1982 70.5282L21.3798 70.0981L21.571 69.7343L22.3894 70.1644L23.0983 68.8155C23.1903 68.6404 23.2254 68.5041 23.2035 68.4066C23.1766 68.3108 23.1007 68.2301 22.9761 68.1646C22.9155 68.1328 22.8496 68.1068 22.7786 68.0866C22.7024 68.068 22.6158 68.0569 22.5189 68.0533L22.5704 67.6484Z" fill="black"/>
<path d="M18.5241 67.8003C18.612 67.8605 18.7307 67.9094 18.8801 67.9471C19.0263 67.9827 19.2289 67.9899 19.4877 67.9688L20.6385 66.2874L21.0247 66.5518L18.6393 70.0369L18.2531 69.7726L19.2556 68.3079C18.9978 68.3343 18.7857 68.3275 18.6195 68.2875C18.4532 68.2474 18.3073 68.1845 18.1817 68.0985C17.9651 67.9502 17.8475 67.7683 17.829 67.5528C17.8053 67.3383 17.8793 67.1054 18.0513 66.8542L19.1408 65.2623L19.527 65.5267L18.4761 67.062C18.2569 67.3823 18.2729 67.6284 18.5241 67.8003Z" fill="black"/>
<path d="M16.5039 63.2313C16.688 63.2806 16.8546 63.35 17.0037 63.4395C17.1553 63.5262 17.2856 63.617 17.3946 63.7119C17.7016 63.9793 17.8549 64.2667 17.8545 64.5742C17.8513 64.8792 17.7172 65.1837 17.4523 65.4878L17.2274 65.7461C16.97 66.0416 16.6893 66.2133 16.3851 66.2612C16.0781 66.3067 15.7869 66.2094 15.5115 65.9695C15.3652 65.8421 15.258 65.6958 15.19 65.5305C15.1166 65.3657 15.0965 65.1918 15.1297 65.0088C15.1576 64.8262 15.2527 64.6417 15.4152 64.4552C15.5201 64.3347 15.6573 64.2119 15.8267 64.087L17.0962 65.1928L17.1037 65.1842C17.2937 64.9662 17.3929 64.7624 17.4014 64.5731C17.4071 64.3812 17.3095 64.1978 17.1086 64.0229C17.0168 63.9429 16.9064 63.8669 16.7774 63.7949C16.6455 63.7204 16.5052 63.6613 16.3566 63.6176L16.5039 63.2313ZM15.7814 65.6597C15.9478 65.8046 16.1215 65.8601 16.3025 65.826C16.4782 65.7923 16.6553 65.6817 16.8338 65.4941L15.8698 64.6544C15.8162 64.6986 15.7694 64.7436 15.7295 64.7895C15.5895 64.9502 15.533 65.1078 15.5598 65.2623C15.5813 65.4173 15.6551 65.5497 15.7814 65.6597Z" fill="black"/>
<path d="M11.975 58.402C11.8354 58.2071 11.6862 58.087 11.5273 58.0416C11.3654 57.9985 11.2025 58.0356 11.0385 58.153C10.9024 58.2505 10.8145 58.3696 10.7749 58.5103C10.7331 58.6479 10.7461 58.8164 10.814 59.0158L10.9719 59.4714C11.0691 59.7574 11.0864 60.0071 11.0239 60.2204C10.9583 60.4359 10.8203 60.6189 10.6099 60.7696C10.4491 60.8848 10.2815 60.958 10.1073 60.9892C9.93087 61.0173 9.75414 60.9894 9.57711 60.9056C9.39786 60.8187 9.22627 60.6608 9.06233 60.4319C8.96263 60.2927 8.87663 60.1366 8.80431 59.9638C8.7289 59.7932 8.67249 59.6066 8.63508 59.4041L9.07613 59.2847C9.11751 59.4797 9.16748 59.6475 9.22604 59.7881C9.2793 59.9278 9.3447 60.0518 9.42224 60.1601C9.54852 60.3364 9.68422 60.4474 9.82936 60.4933C9.96918 60.5382 10.1226 60.5008 10.2897 60.3812C10.4103 60.2948 10.4891 60.1892 10.5261 60.0644C10.56 59.9419 10.5434 59.7782 10.4764 59.5735L10.3186 59.1179C10.121 58.5481 10.2527 58.0981 10.7136 57.768C10.9796 57.5775 11.2537 57.5028 11.536 57.544C11.8151 57.5874 12.0821 57.787 12.3369 58.1428C12.441 58.2881 12.5348 58.455 12.6182 58.6433C12.6962 58.8307 12.7587 59.0388 12.8054 59.2674L12.3723 59.388C12.3291 59.1709 12.2765 58.9863 12.2144 58.8342C12.15 58.6791 12.0702 58.535 11.975 58.402Z" fill="black"/>
<path d="M9.45715 53.7448C9.65349 53.8797 9.80967 54.052 9.92567 54.2618C10.0251 54.4416 10.0667 54.6033 10.0506 54.7471C10.0326 54.8875 9.97393 55.0134 9.87467 55.1248C9.77357 55.2329 9.64811 55.3283 9.49828 55.4112L8.14979 56.157L8.38733 56.5865L8.02774 56.7853L7.7902 56.3558L7.10098 56.737L6.87449 56.3275L7.56371 55.9463L7.11626 55.1372L7.47585 54.9383L7.92331 55.7474L9.25681 55.01C9.42994 54.9142 9.53416 54.8196 9.56945 54.7262C9.59956 54.6313 9.58056 54.5222 9.51243 54.399C9.47928 54.3391 9.43856 54.2812 9.39025 54.2253C9.33678 54.1679 9.27055 54.111 9.19158 54.0547L9.45715 53.7448Z" fill="black"/>
<path d="M8.09467 50.3349L7.72498 50.4863C7.95842 50.6045 8.1364 50.7228 8.25891 50.8412C8.3779 50.961 8.46697 51.0931 8.5261 51.2374C8.6213 51.4698 8.61844 51.6786 8.51753 51.8639C8.4131 52.0506 8.22181 52.2009 7.94366 52.3148L6.15331 53.0483L5.9759 52.6152L7.70287 51.9077C7.88596 51.8327 8.00853 51.7455 8.07059 51.6461C8.12768 51.5446 8.12954 51.4287 8.07618 51.2984C8.03579 51.1998 7.96571 51.099 7.86593 50.996C7.76616 50.8929 7.60483 50.7802 7.38195 50.6577L5.49126 51.4322L5.31385 50.9992L7.92808 49.9282L8.09467 50.3349Z" fill="black"/>
<path d="M6.96953 46.6556L6.59025 46.7616C6.79859 46.8851 6.95519 47.0073 7.06006 47.1281C7.16024 47.2463 7.2308 47.3787 7.27176 47.5253C7.35265 47.8148 7.30517 48.069 7.12932 48.288C6.95246 48.5034 6.66614 48.6663 6.27038 48.7769L5.95157 48.866C5.5668 48.9735 5.23419 48.9637 4.95375 48.8366C4.67229 48.7059 4.48036 48.4573 4.37798 48.0908C4.34828 47.9846 4.32959 47.8752 4.32188 47.7628C4.31417 47.6504 4.31563 47.5354 4.32625 47.4179L2.90809 47.8141L2.78216 47.3634L6.84973 46.2269L6.96953 46.6556ZM6.13983 48.3097C6.42566 48.2298 6.62409 48.127 6.7351 48.0011C6.84142 47.8727 6.8695 47.7186 6.81933 47.5391C6.78964 47.4328 6.73327 47.33 6.65023 47.2308C6.56352 47.1325 6.41182 47.0209 6.19513 46.8957L4.744 47.3012C4.72605 47.4208 4.72174 47.5326 4.73106 47.6366C4.73672 47.7417 4.75286 47.8419 4.77948 47.9372C4.8491 48.1864 4.9744 48.3449 5.15536 48.4129C5.33529 48.4772 5.55718 48.4725 5.82102 48.3987L6.13983 48.3097Z" fill="black"/>
<path d="M6.11503 42.9036C6.22434 43.0597 6.30734 43.22 6.36402 43.3844C6.42447 43.5482 6.46593 43.7015 6.48841 43.8443C6.5517 44.2465 6.48439 44.5652 6.28647 44.8005C6.08796 45.032 5.78949 45.1791 5.39109 45.2418L5.05282 45.2951C4.66568 45.356 4.34022 45.3071 4.07643 45.1483C3.81205 44.9858 3.65146 44.7241 3.59468 44.3633C3.56451 44.1716 3.57647 43.9906 3.63055 43.8203C3.68029 43.6469 3.77669 43.5008 3.91976 43.382C4.05848 43.26 4.25 43.1798 4.49431 43.1413C4.65217 43.1165 4.83613 43.1106 5.04619 43.1238L5.30794 44.787L5.31922 44.7852C5.60487 44.7402 5.81182 44.648 5.94006 44.5084C6.06772 44.365 6.11084 44.1618 6.06943 43.8987C6.05051 43.7784 6.01477 43.6492 5.96222 43.5111C5.90908 43.3693 5.83962 43.2339 5.75384 43.1049L6.11503 42.9036ZM4.0006 44.2994C4.03491 44.5174 4.13235 44.6715 4.29292 44.7618C4.44914 44.8489 4.65593 44.878 4.91329 44.8491L4.71454 43.5862C4.64511 43.5856 4.58032 43.59 4.52019 43.5994C4.30971 43.6326 4.16507 43.717 4.08628 43.8526C4.00313 43.9851 3.97457 44.134 4.0006 44.2994Z" fill="black"/>
<path d="M3.60191 39.5039C3.60614 39.6104 3.63775 39.7348 3.69672 39.8771C3.75554 40.0157 3.87069 40.1824 4.04218 40.3774L6.07806 40.2965L6.09666 40.7641L3.2738 40.8763L3.25611 40.4315L3.6496 40.4159C3.47051 40.2212 3.34539 40.0434 3.27426 39.8825C3.20298 39.7178 3.16431 39.5594 3.15826 39.4073C3.14783 39.145 3.22353 38.9421 3.38537 38.7985C3.54326 38.6514 3.77427 38.5717 4.07842 38.5596L6.00595 38.483L6.02454 38.9506L4.16545 39.0245C3.77766 39.04 3.58982 39.1998 3.60191 39.5039Z" fill="black"/>
<path d="M6.14132 34.9226C6.23124 35.1432 6.26702 35.373 6.24868 35.612C6.23295 35.8169 6.17884 35.9749 6.08636 36.0861C5.99416 36.1935 5.87599 36.2665 5.73183 36.305C5.58797 36.3397 5.43069 36.3506 5.25997 36.3375L3.72353 36.2195L3.68597 36.7089L3.27625 36.6775L3.31382 36.1881L2.52853 36.1278L2.56434 35.6612L3.34963 35.7215L3.42039 34.7996L3.83011 34.831L3.75935 35.7529L5.27872 35.8695C5.47599 35.8847 5.61504 35.8629 5.69586 35.8042C5.77318 35.7415 5.81723 35.6399 5.828 35.4996C5.83324 35.4313 5.83104 35.3605 5.8214 35.2873C5.80826 35.2099 5.78417 35.126 5.74914 35.0356L6.14132 34.9226Z" fill="black"/>
<circle cx="6.84871" cy="25.8728" r="1.90242" fill="black"/>
<circle cx="71.5309" cy="25.8728" r="1.90242" fill="black"/>
<path fill-rule="evenodd" clip-rule="evenodd" d="M45.5164 22.569C45.9105 22.4479 46.3655 22.4482 46.9782 22.4486H47.1901C47.8028 22.4482 48.2578 22.4479 48.6519 22.569C49.7152 22.8957 50.5457 23.848 50.8306 25.0672C50.9362 25.5192 50.936 26.0408 50.9356 26.7434V26.9864C50.936 27.689 50.9362 28.2107 50.8306 28.6626C50.5457 29.8818 49.7152 30.8341 48.6519 31.1608C48.2578 31.2819 47.8028 31.2817 47.1901 31.2812H46.9782C46.3655 31.2817 45.9105 31.2819 45.5164 31.1608C44.4531 30.8341 43.6226 29.8818 43.3377 28.6626C43.2321 28.2107 43.2323 27.689 43.2326 26.9864V26.7434C43.2323 26.0408 43.2321 25.5192 43.3377 25.0672C43.6226 23.848 44.4531 22.8957 45.5164 22.569ZM32.3426 25.0983C31.7299 25.0979 31.275 25.0977 30.8809 25.2188C29.8175 25.5455 28.9871 26.4978 28.7022 27.717C28.5965 28.169 28.5968 28.6906 28.5971 29.3932V29.6362C28.5968 30.3388 28.5965 30.8604 28.7022 31.3124C28.9871 32.5316 29.8175 33.4839 30.8809 33.8106C31.275 33.9317 31.7299 33.9314 32.3426 33.931H32.5546C33.1672 33.9314 33.6222 33.9317 34.0164 33.8106C35.0796 33.4839 35.9102 32.5316 36.1951 31.3124C36.3007 30.8604 36.3005 30.3388 36.3001 29.6362V29.3932C36.3005 28.6906 36.3007 28.169 36.1951 27.717C35.9102 26.4978 35.0796 25.5455 34.0164 25.2188C33.6222 25.0977 33.1672 25.0979 32.5546 25.0983H32.3426ZM47.3409 33.0477C48.2094 33.0476 49.8658 33.0475 50.3313 33.1416C52.5637 33.593 54.3115 35.5971 54.7051 38.1569C54.7872 38.6906 54.7871 39.3094 54.7871 40.3052C54.7871 40.3849 54.7877 40.4649 54.7883 40.5451C54.7912 40.9011 54.7941 41.2603 54.7402 41.6105C54.5153 43.0733 53.5165 44.2185 52.2409 44.4764C51.9739 44.5304 51.6712 44.5302 51.263 44.5301H42.9052C42.716 44.5302 42.5494 44.5302 42.3986 44.5249C42.5854 43.2649 42.5264 41.6013 42.3571 40.4999C42.0832 38.7186 41.2992 37.1465 40.1824 35.9871C40.9745 34.5138 42.2892 33.4545 43.8369 33.1416C44.3032 33.0473 46.2892 33.0476 47.2508 33.0477H47.3409ZM39.5389 37.7457C38.7513 36.7419 37.6804 36.0369 36.4661 35.7914C36.0007 35.6973 35.4611 35.6974 34.5926 35.6974H34.5028H30.3945H30.3047C29.4362 35.6974 28.8966 35.6973 28.4312 35.7914C26.1988 36.2428 24.451 38.2469 24.0574 40.8067C23.9621 41.4258 23.9676 42.0654 23.973 42.6967C23.9742 42.8447 23.9755 42.9922 23.9754 43.1389C23.9753 43.6071 23.9752 43.9542 24.0222 44.2603C24.2472 45.7231 25.2459 46.8682 26.5216 47.1262C26.7719 47.1768 27.0535 47.1798 27.4242 47.1799L27.4995 47.1798C30.7989 47.1785 34.0984 47.1785 37.3978 47.1798C37.806 47.18 38.1086 47.1802 38.3757 47.1262C39.6513 46.8682 40.6501 45.7231 40.875 44.2603C40.8857 44.1907 40.8955 44.1189 40.9043 44.0453C41.0254 43.0407 40.977 41.6982 40.8399 40.8067C40.6604 39.6393 40.1992 38.5875 39.5389 37.7457Z" fill="black"/>
<path d="M25.9179 54.6794C27.8421 53.9169 28.7254 56.3882 30.6271 56.4407C32.5288 56.4932 33.5246 54.8894 33.5246 54.8894C31.6199 55.6361 30.7171 53.1806 28.8154 53.1281C26.9137 53.0756 25.9179 54.6794 25.9179 54.6794ZM28.8379 52.3131C30.7621 51.5506 31.6455 54.0219 33.5471 54.0744L33.6147 51.6294C33.6237 51.3034 33.1617 50.8012 31.7355 50.7618C29.8338 50.7093 28.8379 52.3131 28.8379 52.3131Z" fill="black"/>
<path d="M55.6492 50.6157L52.8009 50.6699L52.9094 56.3665L55.7577 56.3122L55.6492 50.6157ZM49.9526 50.7242L38.5595 50.9413L35.7654 53.8439L38.668 56.6379L50.0612 56.4208L49.9526 50.7242Z" fill="black"/>
</svg>
