<svg width="87" height="96" viewBox="0 0 87 96" fill="none" xmlns="http://www.w3.org/2000/svg">
<g opacity="0.7">
<path d="M76.0496 29.6892C76.3904 26.8116 79.0652 24.7433 82.0395 25.073C85.0139 25.4027 87.1517 27.9906 86.8108 30.8683C86.47 33.7459 83.7952 35.8143 80.8209 35.4845C77.8466 35.1648 75.7088 32.5669 76.0496 29.6892Z" fill="#FCC9A7"/>
<path d="M79.3647 28.4902L73.1166 40.6703L78.239 43.2982L83.3615 34.4753L79.3647 28.4902Z" fill="#FCC9A7"/>
<path d="M38.0237 49.0635L66.1042 63.3418C67.2196 63.9613 68.6448 63.5417 69.2128 62.4226L82.2358 39.5512L74.7276 34.825L64.2659 51.7613L44.4991 39.6811C41.5661 37.4929 37.3008 38.4621 35.6794 41.6795C34.3471 44.3673 35.3696 47.5847 38.0237 49.0635Z" fill="#F9A772"/>
<path d="M34.1509 30.4186C34.1509 30.4186 27.1386 36.4737 28.9149 45.4364C30.6912 54.4091 35.855 58.266 34.9875 64.1812L55.0125 63.4817L54.5994 52.5007C54.5994 52.5007 61.1057 47.6946 54.1346 40.0308L48.1344 33.4162L42.7537 34.0857L34.1509 30.4186Z" fill="#F9A772"/>
<path d="M44.5714 28.9298L48.6301 31.218L51.3462 35.6444L45.7487 33.9857L44.5714 28.9298Z" fill="#F7EBE7"/>
<path d="M42.7641 34.0857C41.5558 34.0757 40.2751 33.5961 39.325 33.1165C38.3852 32.6468 37.8069 31.6976 37.8069 30.6684L38.0031 11.8837L46.4923 11.9237L46.2961 30.4686C46.2857 32.6169 44.6953 34.0957 42.7641 34.0857Z" fill="#FCC9A7"/>
<path d="M46.3477 25.2728L42.8467 20.4767C42.8467 20.4767 40.6985 25.9523 46.327 27.6509L46.3477 25.2728Z" fill="#F2C09E"/>
<path d="M53.99 11.9637C53.9591 17.5591 49.2497 22.0654 43.4766 22.0454C37.6932 22.0155 33.0252 17.4592 33.0562 11.8737C33.0872 6.27828 37.7965 1.76195 43.5799 1.79193C49.353 1.8219 54.021 6.3682 53.99 11.9637Z" fill="#FCC9A7"/>
<path d="M47.1016 25.3328C44.3545 25.3228 42.1444 23.1545 42.1547 20.4967L42.1857 13.5624L53.99 11.9637L53.959 18.7581C53.9384 22.4052 50.8711 25.3428 47.1016 25.3328Z" fill="#FCC9A7"/>
<path d="M53.6699 14.2318L55.9419 17.4992C56.2621 18.0287 55.8386 18.6782 55.1674 18.6782L52.5132 19.1478L53.6699 14.2318Z" fill="#FCC9A7"/>
<path d="M37.6726 27.1913L48.1447 33.4262L45.8726 37.7527L34.1509 30.4286C34.1509 30.4186 35.6174 27.9406 37.6726 27.1913Z" fill="#F7EBE7"/>
<path d="M34.9978 64.1912L33.5623 68.9273L55.312 68.1679L55.0124 63.4917L34.9978 64.1912Z" fill="#F7EBE7"/>
<path d="M55.312 68.1679L56.3034 121.415C56.3034 121.415 34.3885 125.591 22.326 118.357C22.326 118.357 27.0353 101.231 26.1574 94.2267C24.5257 81.3871 26.395 75.8417 33.5829 68.9173L55.312 68.1679Z" fill="#E49258"/>
<path d="M42.196 16.3401L46.6472 16.1802C46.6472 16.1802 47.0293 12.4433 47.8968 11.544C48.7643 10.6447 49.2084 6.64797 49.2084 6.64797C49.2084 6.64797 50.0036 9.13595 49.3943 11.7139L55.818 11.494C55.818 11.494 57.2122 0.542942 43.0842 0.0133725C28.9562 -0.516197 29.3383 12.4133 32.1164 14.9812C34.3265 17.0195 37.9101 20.6466 37.9101 20.6466C37.9101 20.6466 37.7449 16.49 42.196 16.3401Z" fill="#4C1827"/>
<path d="M45.4182 15.0112C45.4802 16.6099 44.1893 17.9488 42.5369 18.0087C40.8845 18.0687 39.5006 16.8197 39.4386 15.221C39.3766 13.6223 40.6676 12.2834 42.32 12.2234C43.9724 12.1735 45.3562 13.4125 45.4182 15.0112Z" fill="#FCC9A7"/>
<path d="M34.0786 17.0695C34.2129 20.6766 31.3005 23.7141 27.5723 23.844C23.8441 23.9739 20.7045 21.1562 20.5703 17.5391C20.436 13.9321 23.3484 10.8945 27.0766 10.7646C30.8152 10.6347 33.9444 13.4524 34.0786 17.0695Z" fill="#4C1827"/>
<path d="M41.5661 75.3621C44.5094 75.8617 46.482 78.5695 45.9759 81.4271C45.4595 84.2748 42.6608 86.1833 39.7071 85.6937C36.7638 85.1941 34.7912 82.4863 35.2973 79.6286C35.8137 76.7709 38.6227 74.8625 41.5661 75.3621Z" fill="#FCC9A7"/>
<path d="M43.4044 76.0215L31.2076 69.267L28.192 74.0531L36.991 79.5287L43.4044 76.0215Z" fill="#FCC9A7"/>
<path d="M30.5053 34.7751L10.9347 59.6548C10.1085 60.6141 10.2841 62.0429 11.3272 62.7823L32.4779 78.5695L38.5918 72.2446L23.0282 59.9346L38.9119 42.5987C41.6487 40.1907 41.4111 35.9541 38.4162 33.8458C35.9272 32.0873 32.4779 32.5069 30.5053 34.7751Z" fill="#F9A772"/>
</g>
</svg>
