<svg width="91" height="93" viewBox="0 0 91 93" fill="none" xmlns="http://www.w3.org/2000/svg">
<g opacity="0.7">
<path d="M29.3995 84.2298C32.0744 82.6711 35.5548 83.5004 37.1658 86.0983C38.7769 88.6862 37.9198 92.0534 35.2346 93.6122C32.5598 95.1709 29.0794 94.3416 27.4683 91.7437C25.8572 89.1658 26.7247 85.7985 29.3995 84.2298Z" fill="#FCC9A7"/>
<path d="M35.8129 84.6195C35.627 84.4796 25.692 73.1888 25.692 73.1888L21.6333 77.9449L30.5976 88.926L35.8129 84.6195Z" fill="#FCC9A7"/>
<path d="M54.4024 28.0955L47.2455 28.695L35.8645 34.8999V79.024H66.2377V34.8999L54.4024 28.0955Z" fill="#54585A"/>
<path d="M52.4402 32.5419H50.385C48.2575 32.5419 46.5329 30.8732 46.5329 28.8149V21.341H56.282V28.8149C56.2924 30.8732 54.5676 32.5419 52.4402 32.5419Z" fill="#FCC9A7"/>
<path d="M46.5329 25.1479C46.5329 25.1479 48.051 28.0955 51.5004 28.0955C54.9498 28.0955 56.282 25.0879 56.282 25.0879L46.5329 25.1479Z" fill="#F4BE9A"/>
<path d="M51.521 26.3669H51.2009C46.2334 26.3669 42.1437 22.57 41.9474 17.7639L41.7719 12.9778C41.5653 7.8919 45.7686 3.66534 51.0253 3.66534H51.6966C55.6727 3.66534 61.1565 7.8919 60.95 12.9778L60.7744 17.7639C60.5782 22.57 56.4886 26.3669 51.521 26.3669Z" fill="#FCC9A7"/>
<path d="M44.7875 16.6048C44.9011 18.2235 43.6412 19.6224 41.9681 19.7323C40.2951 19.8422 38.8492 18.6232 38.7356 17.0045C38.622 15.3858 39.8819 13.9869 41.555 13.877C43.2281 13.7771 44.6739 14.9961 44.7875 16.6048Z" fill="#FCC9A7"/>
<path d="M63.976 16.6048C64.0896 18.2235 62.8296 19.6224 61.1566 19.7323C59.4835 19.8422 58.0376 18.6232 57.924 17.0045C57.8104 15.3858 59.0704 13.9869 60.7435 13.877C62.4166 13.7771 63.8624 14.9961 63.976 16.6048Z" fill="#FCC9A7"/>
<path d="M35.8645 78.8142L16.9756 175.965L27.8298 175.865L55.4455 79.0041L35.8645 78.8142Z" fill="#0C0C0C"/>
<path d="M66.2378 79.024L65.0501 176.065H53.5762L49.0012 79.6336L66.2378 79.024Z" fill="#0C0C0C"/>
<path d="M35.8645 34.8999C35.8645 34.8999 10.5003 49.7079 4.33474 59.9795C3.12643 61.9879 4.69618 64.5858 6.82364 65.6549C9.17831 66.8439 12.0804 66.0346 13.4333 63.8264L36.8973 50.6571C36.9076 50.6571 35.8645 39.3463 35.8645 34.8999Z" fill="#54585A"/>
<path d="M41.2452 7.5422L41.9578 14.8962H43.1041L43.2487 11.0394C43.2487 11.0394 43.8477 9.56055 46.5225 6.38314C46.5225 6.38314 48.2678 10.6996 59.0807 9.86031L59.7107 14.7363L60.8261 14.6164L61.4147 9.3807C61.8072 7.61214 61.9415 5.96348 61.611 4.18493C60.9397 0.587855 57.9137 -1.40053 49.1767 1.13741C48.4538 1.34724 49.9306 1.20735 49.1767 1.13741C46.6774 0.867628 40.0885 0.837652 41.2452 7.5422Z" fill="#2E2A33"/>
<path d="M54.1132 78.3246L51.6553 103.764C51.5623 104.723 52.2336 105.592 53.2147 105.772L83.371 111.348C84.4761 111.558 85.5295 110.798 85.6534 109.719L88.4109 85.5387C88.5141 84.5995 87.8842 83.7302 86.9237 83.5104L56.4679 76.6759C55.3319 76.4162 54.2268 77.1955 54.1132 78.3246Z" fill="#AFAFAF"/>
<path d="M55.7863 78.7742L53.3284 104.214C53.2354 105.173 53.9067 106.042 54.8878 106.222L85.0441 111.797C86.1491 111.997 87.2026 111.248 87.3265 110.169L90.0839 85.9884C90.1872 85.0491 89.5572 84.1798 88.5967 83.96L58.141 77.1256C57.0153 76.8658 55.8999 77.6452 55.7863 78.7742Z" fill="#D1D1D1"/>
<path d="M66.2377 34.8999C66.2377 34.8999 74.3551 40.5254 74.8715 48.5388L77.412 67.2736C77.5566 68.3727 77.6186 69.4718 77.5773 70.5809L76.5962 99.0777H65.4528L65.2463 68.2328L66.2377 34.8999Z" fill="#54585A"/>
<path d="M48.1027 28.0955C47.2352 28.705 43.0525 30.9831 43.0525 30.9831C43.0525 30.9831 43.1661 36.6785 52.0271 36.2189C59.8244 35.8192 59.7727 31.1929 59.7727 31.1929L54.3921 28.0955H48.1027Z" fill="#FCC9A7"/>
<path d="M16.831 56.2825L31.9917 79.7235L24.8038 86.3081L4.37602 63.2369L16.831 56.2825Z" fill="#54585A"/>
<path d="M65.2359 78.7143V68.2228L62.716 49.0884" stroke="#424647" stroke-width="0.7693" stroke-miterlimit="10" stroke-linecap="round" stroke-linejoin="round"/>
</g>
</svg>
