<svg width="107" height="99" viewBox="0 0 107 99" fill="none" xmlns="http://www.w3.org/2000/svg">
<g opacity="0.7">
<path d="M35.4968 87.4289L39.0804 109.671L57.1949 141.175L88.3839 167.414L95.6544 154.974L70.9201 132.652L56.41 87.8086L35.4968 87.4289Z" fill="#092330"/>
<path d="M64.9302 86.1599C64.9302 86.1599 68.5344 92.7545 62.9369 103.286L45.5558 135.38L32.3056 184.02L19.1484 179.574L28.598 130.384L45.3492 91.9952L35.4968 87.4289L64.9302 86.1599Z" fill="#0C2C40"/>
<path d="M27.0386 23.5808C29.3313 26.0088 33.2247 26.1787 35.724 23.9705C38.2336 21.7523 38.4091 17.9854 36.1268 15.5573C33.8341 13.1293 29.9509 12.9594 27.431 15.1676C24.9214 17.3958 24.7459 21.1528 27.0386 23.5808Z" fill="#FCC9A7"/>
<path d="M22.1227 26.6383L27.4723 20.4034L31.7376 24.55L26.7184 30.4952L22.1227 26.6383Z" fill="#FCC9A7"/>
<path d="M34.1955 12.0402L29.29 18.395C28.6497 19.2244 28.6703 20.3734 29.3416 21.1728L33.3177 25.9189C34.2472 27.028 35.9822 27.038 36.922 25.9489L42.4678 19.5641C43.2321 18.6848 43.1908 17.3859 42.3749 16.5465L37.7585 11.8304C36.7671 10.8212 35.063 10.9111 34.1955 12.0402Z" fill="#1C2226"/>
<path d="M39.2663 34.442L19.8197 43.8843L30.4983 27.9473L23.4549 22.0521L1.18887 51.5681C-0.835323 54.106 -0.050433 57.803 2.85159 59.3517C4.32842 60.1411 6.10475 60.221 7.65387 59.5616L36.4882 48.4806L39.2663 34.442Z" fill="#874325"/>
<path d="M32.3056 43.5046C32.3056 43.5046 35.7447 69.5934 35.4968 87.4289C35.4968 87.4289 45.814 91.8253 67.6876 85.4005L62.276 36.89L51.7419 33.4628L39.2663 34.442L32.3056 43.5046Z" fill="#874325"/>
<path d="M42.7983 31.904L43.0668 33.6027C43.0875 33.7226 43.0462 33.8525 42.9532 33.9424L40.2578 36.7101C40.0099 36.9599 39.5762 36.8201 39.5348 36.4803L39.256 34.442C39.2353 34.3121 39.287 34.1822 39.3903 34.0923L42.0857 31.6643C42.3439 31.4444 42.757 31.5743 42.7983 31.904Z" fill="#FCF3F0"/>
<path d="M46.4026 36.2905C49.6041 36.0407 51.9898 33.3129 51.7316 30.2154L50.9571 21.1428L39.3489 22.0621L41.7449 34.6018C42.127 36.2005 43.1908 36.5403 46.4026 36.2905Z" fill="#FCC9A7"/>
<path d="M51.3495 24.3202C51.3495 24.3202 48.8502 31.1946 43.7794 30.3453C39.1217 29.5659 39.3489 22.0621 39.3489 22.0621L51.3495 24.3202Z" fill="#F4BE9A"/>
<path d="M44.585 27.8473L45.6177 27.7374C50.7608 27.1979 54.489 22.7215 53.9314 17.7456L53.3014 12.0702C52.7437 7.09424 48.117 3.48715 42.9739 4.02671L41.9411 4.13662C36.798 4.67619 33.0698 9.15256 33.6275 14.1285L34.2575 19.8039C34.8152 24.7898 39.4419 28.3869 44.585 27.8473Z" fill="#FCC9A7"/>
<path d="M44.585 27.8473L45.6177 27.7374C50.7608 27.1979 54.489 22.7215 53.9314 17.7456L53.3014 12.0702C52.7437 7.09424 48.117 3.48715 42.9739 4.02671L41.9411 4.13662C36.798 4.67619 33.0698 9.15256 33.6275 14.1285L34.2575 19.8039C34.8152 24.7898 39.4419 28.3869 44.585 27.8473Z" fill="#FCC9A7"/>
<path d="M53.7248 15.947C53.0226 15.8771 50.0792 18.0353 49.315 17.0961C48.2616 15.7972 47.3011 13.4291 48.6644 10.9711C48.8916 10.5614 48.9535 10.0818 48.8089 9.63218C48.5404 8.82284 47.8175 7.88359 45.8243 8.56304C42.6331 9.65216 35.4555 13.1493 33.3797 8.14337C30.7565 1.8385 51.3908 3.59708 51.3908 3.59708L56.0898 10.1717L54.076 19.5441L53.7248 15.947Z" fill="#1C2226"/>
<path d="M50.8538 16.8963C51.05 18.6748 52.7024 19.9638 54.5407 19.7639C56.379 19.5741 57.7112 17.9754 57.5047 16.1968C57.3085 14.4183 55.656 13.1293 53.8178 13.3291C51.9795 13.529 50.6575 15.1177 50.8538 16.8963Z" fill="#FCC9A7"/>
<path d="M45.3492 38.2189L47.9827 77.4969L43.0772 81.9533L40.1648 77.6368L43.0772 37.4395L45.3492 38.2189Z" fill="#0C2C40"/>
<path d="M41.4248 35.5111L41.8275 34.9715L41.7243 34.5019H47.5283L47.9827 35.9707L44.1202 39.2681L41.4248 35.5111Z" fill="#0C2C40"/>
<path d="M51.3598 29.6858L45.8656 33.3029C45.2459 33.7126 45.1633 34.5719 45.7003 35.0815L50.0173 39.1881C50.5026 39.6477 51.2979 39.6278 51.7523 39.1282L56.1001 34.402C56.5236 33.9424 56.5029 33.233 56.0485 32.8033L52.8676 29.7958C52.4649 29.4261 51.8349 29.3761 51.3598 29.6858Z" fill="#FCF3F0"/>
<path d="M28.0816 31.5544L19.861 26.7582" stroke="#EADDD8" stroke-width="0.7599" stroke-miterlimit="10" stroke-linecap="round" stroke-linejoin="round"/>
<path d="M43.0565 69.2237L40.1751 99.0294C40.0615 100.149 40.8568 101.168 42.0031 101.388L77.3335 107.922C78.6347 108.162 79.8637 107.283 80.0083 106.014L83.2408 77.6868C83.3647 76.5877 82.6211 75.5685 81.5058 75.3087L45.8243 67.3053C44.492 66.9955 43.1908 67.9047 43.0565 69.2237Z" fill="#AFAFAF"/>
<path d="M45.5661 69.7532L42.6847 99.559C42.5815 100.678 43.3663 101.697 44.5127 101.917L79.843 108.452C81.1443 108.692 82.3733 107.812 82.5179 106.543L85.7504 78.2164C85.8743 77.1173 85.1307 76.0981 84.0154 75.8383L48.3339 67.8248C46.9913 67.5251 45.69 68.4343 45.5661 69.7532Z" fill="#D1D1D1"/>
<path d="M58.8989 97.1809C56.0588 94.663 51.6387 94.8528 49.0361 97.6006C46.4336 100.348 46.6298 104.625 49.4699 107.143C52.3099 109.661 56.7301 109.471 59.3326 106.723C61.9352 103.965 61.739 99.6989 58.8989 97.1809Z" fill="#FCC9A7"/>
<path d="M64.1349 93.2441L58.744 100.818L53.4976 96.5414L58.5374 89.3373L64.1349 93.2441Z" fill="#FCC9A7"/>
<path d="M62.2863 36.89C62.2863 36.89 70.1868 37.6594 72.4795 50.1592L81.5677 68.4243C81.8156 69.2237 81.9809 70.043 82.0635 70.8623L62.9473 97.4307L54.3238 92.4847L69.7841 68.5042L60.3964 54.126L62.2863 36.89Z" fill="#874325"/>
<path d="M57.1329 88.8977L65.839 93.414" stroke="#EADDD8" stroke-width="0.7599" stroke-miterlimit="10" stroke-linecap="round" stroke-linejoin="round"/>
<path d="M64.9921 61.1702L59.4256 51.7979" stroke="#EADDD8" stroke-width="0.7599" stroke-miterlimit="10" stroke-linecap="round" stroke-linejoin="round"/>
<path d="M35.5071 10.3716C31.562 8.64297 32.3882 4.18659 33.2867 2.77774C33.2867 2.77774 33.4623 5.28571 35.2283 4.70618C35.2283 4.70618 34.9907 0.969211 40.1648 0C40.1648 0 38.2542 3.35727 45.06 2.71779C53.415 1.92843 53.9004 7.04427 53.4356 13.3991L50.8744 11.6205L48.8916 7.19416H42.127L35.5071 10.3716Z" fill="#1C2226"/>
</g>
</svg>
