<svg width="101" height="62" viewBox="0 0 101 62" fill="none" xmlns="http://www.w3.org/2000/svg">
<g opacity="0.7">
<path d="M45.0011 40.8249L43.6482 67.0136L37.2864 86.218H48.7396L54.6883 69.6714L56.5472 50.8667L45.0011 40.8249Z" fill="#F7EBE7"/>
<path d="M66.0072 30.5333C66.4099 30.913 84.4314 35.3593 84.4314 35.3593L80.5793 45.2613L60.8744 43.8224L66.0072 30.5333Z" fill="#F7EBE7"/>
<path d="M58.5714 32.9213C58.5714 32.9213 46.829 37.0679 45.0011 40.8249C45.631 46.1306 47.5623 51.2364 50.7432 55.6029C54.6469 60.9585 59.4699 70.161 58.5817 82.1613H92.5282C92.5282 82.1613 90.7002 48.3987 80.6516 35.4393L58.5714 32.9213Z" fill="#F7EBE7"/>
<path d="M62.4236 38.277C65.7593 37.6175 67.9075 34.4701 67.2259 31.2427L65.2326 21.8004L53.1598 24.1884L55.153 33.6308C55.8346 36.8581 59.0878 38.9364 62.4236 38.277Z" fill="#FCC9A7"/>
<path d="M66.0588 25.0977C66.0588 25.0977 64.7886 32.7515 58.6334 33.2111C53.2424 33.6108 53.7588 26.0669 53.7588 26.0669L66.0588 25.0977Z" fill="#F4BE9A"/>
<path d="M59.1187 29.0145L60.1825 28.7747C65.5218 27.5757 68.8473 22.4199 67.608 17.2641L66.2034 11.3789C64.9641 6.21306 59.6351 2.99568 54.3062 4.1947L53.2424 4.43451C47.9031 5.63353 44.5776 10.7893 45.8169 15.9451L47.2215 21.8304C48.4608 26.9962 53.7898 30.2135 59.1187 29.0145Z" fill="#FCC9A7"/>
<path d="M64.2619 19.7121C64.014 20.1217 63.7764 20.7412 63.6938 21.6805C63.6008 22.8695 62.9812 23.9986 61.9484 24.658C58.9845 26.5565 56.7227 21.7504 52.3439 22.5997C52.3439 22.5997 50.6295 22.8495 50.2887 24.698C49.9479 26.5365 47.5622 23.3191 47.0355 21.1209C46.5088 18.9227 46.2404 32.0021 57.0223 30.893C57.0223 30.893 62.4649 30.7231 66.1311 25.3575C66.5339 24.768 66.7714 24.0785 66.792 23.3691C66.823 22.3199 66.6681 20.7312 65.6354 19.5922C65.2739 19.1725 64.551 19.2325 64.2619 19.7121Z" fill="#1C2226"/>
<path d="M64.2722 16.7445C64.2722 16.7445 59.6145 15.2557 60.3994 8.67105C60.3994 8.67105 48.8326 19.2624 40.2607 11.4888C40.2607 11.4888 44.0923 10.4996 45.6724 7.96163C48.5538 3.33539 56.8364 -3.03942 63.4667 4.33458C63.4667 4.33458 71.5324 3.12557 69.2191 15.1458L64.2722 16.7445Z" fill="#1C2226"/>
<path d="M64.2721 16.7445C64.7162 18.583 66.6165 19.7321 68.5168 19.3124C70.4274 18.8827 71.6046 17.0442 71.1709 15.2057C70.7268 13.3672 68.8266 12.2182 66.9263 12.6378C65.0157 13.0675 63.8281 14.906 64.2721 16.7445Z" fill="#FCC9A7"/>
<path d="M58.3855 37.9073L63.3737 37.9972L59.883 44.9915L56.1135 38.2869L58.3855 37.9073Z" fill="#0C2C40"/>
<path d="M67.6493 30.843L61.2256 38.0971L65.4082 42.7433L73.1022 32.5116C73.1022 32.5116 71.1296 29.4441 67.6493 30.843Z" fill="#FFF7F3"/>
<path d="M58.3855 37.9073L54.6883 41.944L52.0857 35.6491C52.0857 35.6491 52.7674 32.8214 54.8948 33.361L58.3855 37.9073Z" fill="#FFF7F3"/>
<path d="M59.7487 42.7333C59.7487 42.7333 54.9258 54.9034 56.1238 72.1694L60.8744 76.366L66.4203 71.2002L60.4407 41.944L59.7487 42.7333Z" fill="#0C2C40"/>
<path d="M4.42434 51.4562H35.4585C36.4809 51.4562 37.3587 52.1457 37.5756 53.1149L43.4209 79.6333C43.7101 80.9323 42.6774 82.1612 41.3038 82.1612H9.75333C8.72058 82.1612 7.83243 81.4518 7.63621 80.4726L2.30721 53.9542C2.0387 52.6553 3.06111 51.4562 4.42434 51.4562Z" fill="#B2B2B2"/>
<path d="M2.63769 51.4562H33.6615C34.6839 51.4562 35.5618 52.1457 35.7786 53.1149L41.624 79.6333C41.9131 80.9323 40.8907 82.1612 39.5069 82.1612H7.96668C6.93393 82.1612 6.04578 81.4518 5.84955 80.4726L0.520563 53.9542C0.252048 52.6553 1.27446 51.4562 2.63769 51.4562Z" fill="#D1D1D1"/>
<path d="M77.0266 44.7917L88.3662 62.5072L61.2256 71.8796L64.9435 79.6533C64.9435 79.6533 88.1494 77.1353 99.365 68.7721C100.398 68.0028 100.914 66.7538 100.739 65.5048C100.212 61.5081 97.9604 51.8059 88.3662 38.0172C86.4143 35.2095 82.5312 34.3601 79.5052 36.0588C76.3553 37.8173 75.2503 41.7142 77.0266 44.7917Z" fill="#F7EBE7"/>
</g>
</svg>
