<svg width="122" height="94" viewBox="0 0 122 94" fill="none" xmlns="http://www.w3.org/2000/svg">
<g opacity="0.7">
<path d="M43.6426 4.67642C43.6426 4.67642 40.7612 4.89626 40.5133 8.75312C40.2654 12.61 40.2448 23.8009 45.6564 24.4903C51.068 25.1798 47.1745 6.10528 47.1745 6.10528L43.6426 4.67642Z" fill="#1C2226"/>
<path d="M62.4386 8.13363C62.4386 8.13363 64.628 14.0388 60.2595 15.1179C55.8806 16.1971 56.6965 7.63403 56.6965 7.63403L62.4386 8.13363Z" fill="#1C2226"/>
<path d="M37.5493 45.2234L24.0099 63.6884L24.7639 61.9598L18.5157 89.0578L11.555 87.7988L15.8616 60.3511C15.9545 59.7516 16.192 59.2121 16.5225 58.7524L16.6155 58.6225L30.1548 40.1576L37.5493 45.2234Z" fill="#FCC9A7"/>
<path d="M13.3314 97.371C9.76838 96.3419 7.75452 92.7048 8.81825 89.2676C9.88198 85.8204 13.6412 83.872 17.1939 84.9012C20.7569 85.9303 22.7707 89.5674 21.707 93.0046C20.6432 96.4418 16.8943 98.4002 13.3314 97.371Z" fill="#FCC9A7"/>
<path d="M66.8588 44.594L75.4203 69.9134L70.8245 66.8958L98.7087 66.1664L99.1529 73.0108L71.3926 75.6587C69.3271 75.8585 67.4681 74.6195 66.8484 72.791L66.7968 72.6411L58.2353 47.3218L66.8588 44.594Z" fill="#FCC9A7"/>
<path d="M60.6003 83.9319L42.2586 133.162L16.2953 174.788L4.7182 169.253L27.8002 127.756L40.4617 86.2501L60.6003 83.9319Z" fill="#092330"/>
<path d="M32.2617 84.6614C32.2617 84.6614 28.7916 91.0062 34.1826 101.148L50.9234 132.053L63.6779 178.895L76.3497 174.618L64.2253 127.247L51.1197 90.2868L60.6106 83.942L32.2617 84.6614Z" fill="#0C2C40"/>
<path d="M48.0524 29.9659L33.7695 32.8036C32.0861 33.1333 30.5989 34.0725 29.5972 35.4214L20.509 47.6714L32.6541 55.3552L28.2752 88.8979C28.2752 88.8979 33.2221 103.546 63.399 91.8655C63.399 91.8655 60.7965 64.0681 62.5419 45.9628L61.6537 34.0426L48.0524 29.9659Z" fill="#DF945B"/>
<path d="M61.664 34.0325L64.0394 34.8718C66.0016 35.5613 67.53 37.0901 68.1806 39.0185L73.1276 53.6166L58.5864 56.2145L61.664 34.0325Z" fill="#DF945B"/>
<path d="M107.983 67.6352C107.983 71.2323 104.967 74.1499 101.249 74.1499C97.5314 74.1499 94.5261 71.2323 94.5261 67.6352C94.5261 64.0381 97.5418 61.1305 101.249 61.1305C104.967 61.1305 107.983 64.0381 107.983 67.6352Z" fill="#FCC9A7"/>
<path d="M52.0905 34.1924L50.469 35.0617C47.3192 34.8119 44.3551 34.1625 44.6133 31.115L45.3673 22.1822L56.7791 23.0915L56.0252 32.0242C55.7671 35.0717 55.2404 34.4422 52.0905 34.1924Z" fill="#FCC9A7"/>
<path d="M45.2123 23.2613C45.2123 23.2613 46.7821 29.876 52.5242 29.6461C57.5433 29.4363 57.0683 22.1822 57.0683 22.1822L45.2123 23.2613Z" fill="#F4BE9A"/>
<path d="M51.5431 27.298L50.5723 27.1981C45.7184 26.6885 42.207 22.4719 42.7234 17.7658L43.3224 12.4102C43.8491 7.71397 48.2073 4.31673 53.0715 4.81632L54.0423 4.91625C58.8962 5.42583 62.4076 9.6424 61.8912 14.3486L61.2922 19.7042C60.7655 24.4004 56.4073 27.7976 51.5431 27.298Z" fill="#FCC9A7"/>
<path d="M33.4907 53.0171L37.1672 48.8205" stroke="#CE804A" stroke-width="0.7693" stroke-miterlimit="10" stroke-linecap="round" stroke-linejoin="round"/>
<path d="M61.9945 55.605L62.5531 46.942" stroke="#CE804A" stroke-width="0.7693" stroke-miterlimit="10" stroke-linecap="round" stroke-linejoin="round"/>
<path d="M52.0905 34.1924L44.8405 29.9559C41.7423 28.7069 39.7698 31.6045 39.7698 31.6045L48.4035 39.7979L52.0905 34.1924Z" fill="#EDA472"/>
<path d="M52.0905 34.1924L55.6018 39.4481L59.1131 33.2632C59.1131 33.2632 57.7293 31.1549 55.8393 31.6445L52.0905 34.1924Z" fill="#EDA472"/>
<path d="M71.0104 67.905H114.892C115.625 67.905 116.214 67.3354 116.214 66.626C116.214 65.9166 115.625 65.347 114.892 65.347H71.0104C70.2772 65.347 69.6885 65.9166 69.6885 66.626C69.6885 67.3254 70.2772 67.905 71.0104 67.905Z" fill="#D1D1D1"/>
<path d="M116.214 66.2963L121.46 41.6364C121.594 41.0269 121.109 40.4473 120.458 40.4473H93.7619C93.2765 40.4473 92.8531 40.777 92.7601 41.2467L87.5861 66.3063H116.214V66.2963Z" fill="#D1D1D1"/>
<path d="M118.496 42.3258L113.601 64.6976H89.3934L94.2886 42.3258H118.496Z" fill="#EFEFEF"/>
<path d="M43.9008 16.4868H46.8648L47.4431 13.3394C47.4431 13.3394 50.5413 11.7307 49.9423 8.62322C49.9423 8.62322 62.9859 13.1495 65.0204 8.11363C67.7056 1.46903 57.9668 -0.17961 49.9423 0.010236C41.9179 0.19009 42.4962 10.102 42.4962 10.102L43.9008 16.4868Z" fill="#1C2226"/>
<path d="M45.6358 15.8573C45.4499 17.536 43.8904 18.745 42.1554 18.5652C40.4204 18.3853 39.1707 16.8765 39.3566 15.1979C39.5425 13.5192 41.102 12.3102 42.837 12.4901C44.572 12.6699 45.8217 14.1787 45.6358 15.8573Z" fill="#FCC9A7"/>
</g>
</svg>
