<svg width="103" height="82" viewBox="0 0 103 82" fill="none" xmlns="http://www.w3.org/2000/svg">
<g opacity="0.7">
<path d="M1.74005 36.0019C0.398104 36.6346 0.43765 37.9791 1.81906 38.596C11.6073 42.93 20.8826 47.3273 29.7236 51.772C30.8682 52.3414 32.2101 52.9425 33.5323 52.6578C34.4006 52.468 35.0321 51.9301 35.6044 51.424L43.2614 44.7649C44.0113 44.1163 43.8337 43.1199 42.8864 42.6137C34.2822 38.0424 24.9084 33.8191 14.8044 30.0229C13.9755 29.7066 12.9493 29.8015 12.2783 30.2285C9.04184 32.3006 5.52906 34.2303 1.74005 36.0019Z" fill="#666666"/>
<path d="M7.20655 36.6821C6.27903 37.125 6.31856 38.074 7.26581 38.5011C14.0742 41.5539 20.6063 44.6699 26.8621 47.865C27.6712 48.2763 28.6382 48.7192 29.5855 48.5136C30.1972 48.3871 30.6511 48.0075 31.0853 47.6595L36.6503 42.9458C37.2029 42.4871 37.0844 41.7595 36.3937 41.3957C30.1577 38.1057 23.4481 35.1004 16.2845 32.4272C15.6924 32.2058 14.9819 32.269 14.5083 32.5854C12.2783 34.0564 9.83123 35.4326 7.20655 36.6821Z" fill="white"/>
<path d="M15.4161 33.8507C15.2188 33.7874 15.0017 33.7083 14.7846 33.74C14.5873 33.7716 14.4096 33.8665 14.2518 33.9614C13.9163 34.1671 13.6005 34.3727 13.2848 34.61C12.969 34.8473 12.6927 35.1161 12.3967 35.3534C12.1599 35.5432 11.8836 35.7014 11.627 35.8754C11.035 36.2392 10.443 36.6188 9.83126 36.9826C9.47604 37.2041 9.16026 37.3305 8.94319 37.5836C8.86425 37.6785 8.78534 37.7735 8.72614 37.9158C9.2195 38.2322 9.7523 38.4853 10.3049 38.7384C10.6206 38.8807 11.0548 39.2445 11.4495 39.1496C11.6863 39.0864 11.9034 38.8332 12.0613 38.6909C12.1007 38.6592 12.1402 38.6276 12.1797 38.596C12.3178 38.8648 12.4559 39.1496 12.6138 39.4185C12.6927 39.0547 12.6928 38.675 12.6928 38.3112C12.6928 38.2796 12.6928 38.2321 12.6928 38.2005C12.752 38.1531 12.8309 38.0898 12.8901 38.0424C13.6597 37.4097 14.4293 36.7769 15.1792 36.1284C15.4752 35.8753 15.7713 35.6697 16.1068 35.4641C16.2252 35.4008 17.0936 34.5783 17.133 34.5942C16.5805 34.3411 16.0279 34.0563 15.4161 33.8507Z" fill="#CCCCCC"/>
<path d="M25.974 37.8368C25.6977 37.8368 25.4017 37.8051 25.1254 37.7893C25.382 37.5204 25.6582 37.2516 25.9148 36.9669C25.4411 36.8087 24.9478 36.6505 24.4742 36.4924C24.415 36.4765 24.3361 36.4449 24.2571 36.4449C24.0992 36.4449 24.0006 36.5556 23.9019 36.6505C23.2704 37.3148 22.2639 37.9159 21.6324 38.596C21.1193 39.1496 20.9812 39.3078 20.251 40.1145C20.6259 40.2569 21.5733 40.7631 21.9482 40.9054C22.0074 40.6681 22.2442 40.4783 22.4416 40.3043C23.2112 39.6716 23.9414 38.9914 24.6321 38.2955C24.8294 38.2797 25.0465 38.248 25.2438 38.2006C25.5201 38.1215 25.7569 37.995 25.974 37.8368Z" fill="#B8CDD8"/>
<path d="M18.021 37.3781C17.7447 37.2516 17.4487 37.1408 17.1724 37.0142C17.1329 36.9984 17.0934 36.9827 17.0342 36.9827C16.9553 36.9827 16.8962 37.0143 16.8567 37.0617C15.6529 37.9317 14.4689 38.9598 13.3243 39.8772C13.5611 39.9879 14.3504 40.3517 14.5872 40.4624C14.6464 40.4941 14.7057 40.5258 14.7846 40.5258C14.903 40.5258 14.982 40.4466 15.0412 40.3675C15.0806 40.3201 15.12 40.2727 15.1792 40.2252C15.3173 40.4783 15.4358 40.7155 15.5739 40.9686C15.6529 40.6048 15.6529 40.2252 15.6529 39.8614C15.6529 39.8297 15.6529 39.7824 15.6529 39.7507C16.3831 38.9282 17.1724 38.1373 18.021 37.3781Z" fill="#CCCCCC"/>
<path d="M25.4609 42.06C25.086 41.886 24.711 41.6963 24.3361 41.5223C24.2966 41.5065 24.2375 41.4748 24.1783 41.4748C24.1388 41.4748 24.0992 41.5064 24.0597 41.538C23.4677 41.9967 22.8757 42.4555 22.2837 42.9142C21.8496 43.2464 21.4154 43.5943 21.1786 44.0372C21.5535 44.2587 21.9679 44.4643 22.3824 44.6383C22.4416 44.6699 22.5008 44.6858 22.56 44.6858C22.639 44.6858 22.6981 44.6541 22.7573 44.6225C22.9152 44.5276 23.0534 44.4327 23.1718 44.3219C23.3099 44.4327 23.448 44.5434 23.5861 44.6541C23.6256 44.6858 23.6848 44.7174 23.744 44.7015C23.7243 44.4326 23.6849 44.148 23.6454 43.8791C24.2966 43.3255 24.9084 42.7086 25.4609 42.06Z" fill="#CCCCCC"/>
<path d="M32.6047 41.1426C32.8613 40.8263 33.0981 40.4941 33.3547 40.1778C32.7429 39.9879 32.1509 39.7981 31.5391 39.5925C31.4799 39.5767 31.4404 39.5609 31.3812 39.5609C31.322 39.5609 31.2629 39.6084 31.2037 39.64C29.6249 40.8421 28.7368 42.5346 27.2962 43.8474C27.2567 43.8791 27.2173 43.9266 27.2173 43.974C27.2173 44.0056 27.2567 44.0373 27.2962 44.0689C27.8093 44.496 28.3816 44.9072 28.9737 45.2711C29.8025 44.496 30.5918 43.6893 31.3615 42.8668C31.6575 42.5504 31.9535 42.234 32.0127 41.8544C32.4074 41.8702 32.8218 41.8386 33.1968 41.7595C33.2362 41.633 33.0389 41.5381 32.8613 41.5065C32.7034 41.4748 32.5061 41.3957 32.5259 41.2533C32.5456 41.2217 32.585 41.1901 32.6047 41.1426Z" fill="#B8CDD8"/>
<path d="M67.14 30.2444C68.2846 28.9632 69.0345 27.2549 69.2121 25.2145C69.5081 21.4499 69.2714 17.5429 67.3374 14.0947C65.1074 10.1245 59.4633 6.18595 53.6022 7.19827C46.7346 8.38459 47.1687 15.4866 47.6424 20.2002C48.0173 23.949 49.6948 27.761 53.1483 30.2918C58.3188 34.1038 64.1009 33.6135 67.14 30.2444Z" fill="#A88B71"/>
<path d="M67.4755 23.949C68.5215 24.6924 70.1595 24.7082 71.2054 23.9806C72.2513 23.2688 72.6263 21.8769 72.0343 20.8488C73.7907 19.6467 74.1458 17.1949 72.8039 15.6448C74.501 15.1544 74.4616 13.0982 74.0867 11.5797C73.9485 11.0103 73.8103 10.4409 73.6524 9.88726C73.4946 9.23874 73.317 8.57432 73.0999 7.9258C72.8039 7.08747 72.4092 6.23342 71.6396 5.64817C71.1462 5.26855 69.9819 5.39506 70.2384 5.91704C70.8107 4.63582 69.6858 3.16475 68.2255 2.61114C66.7651 2.05752 65.0878 2.18406 63.509 2.3106C63.0354 1.59881 61.9697 1.34572 61.0027 1.40899C60.0555 1.47226 59.1279 1.75701 58.1807 1.83609C56.4046 1.97845 54.668 1.32996 52.9116 1.07688C51.1553 0.807985 49.0041 1.09269 48.1358 2.453C47.9187 2.80098 48.1161 3.44952 48.5108 3.25971C47.1886 3.22807 45.748 3.73417 45.2152 4.77813C44.6823 5.82209 45.6098 7.309 46.9123 7.21409C45.5703 7.05591 44.0311 7.53045 43.5378 8.60604C43.0247 9.68163 44.2087 11.1526 45.4915 10.8363C45.156 10.6148 44.6232 10.9786 44.6429 11.3424C44.6626 11.7062 44.9981 12.0068 45.3533 12.2124C47.1886 13.2722 49.9712 12.7976 51.175 11.2159C51.5499 12.1175 52.8721 12.4971 53.9377 12.2915C55.0231 12.0858 55.9112 11.4532 56.7598 10.8521C58.4174 11.7221 60.6475 11.7221 62.3249 10.8521C62.5025 11.7379 63.805 12.2915 64.7325 11.896C64.6733 12.8292 64.6141 13.7467 64.5549 14.6799C65.0088 14.6957 65.4627 14.7116 65.9166 14.7274C64.772 15.3127 64.101 16.4989 64.2786 17.6378C64.7127 17.9541 65.3442 17.6378 65.8968 17.4638C67.2782 17.0051 68.048 18.1439 68.2058 19.4093C68.3834 20.6747 67.9098 21.7029 66.4494 21.5289C67.7914 21.5289 68.482 23.2372 67.4755 23.949Z" fill="#C69C6D"/>
<path d="M63.4299 33.9931C58.0819 33.914 53.4641 37.3306 51.4315 41.285C44.9388 53.9548 52.0827 56.9285 51.0565 70.3734C49.8132 86.4599 42.6891 106.422 41.801 122.524C41.6432 125.292 43.2416 127.19 44.6822 129.404C60.1737 128.803 75.7245 127.174 91.1174 125.624C91.3147 107.814 88.4533 99.8731 82.6119 82.6953C79.9872 74.9605 72.6657 76.1943 72.3894 68.1906C72.2118 63.0974 77.323 48.9724 75.9416 44.0057C74.5602 39.0231 69.7844 34.088 63.4299 33.9931Z" fill="#537082"/>
<path d="M61.6144 55.8371C60.1343 55.0937 58.5358 54.4768 56.8979 54.0023C56.6808 53.939 56.444 53.8758 56.2467 53.9549C56.0296 54.0339 55.9309 54.2237 55.852 54.4135C54.589 57.3398 53.7009 60.3768 53.1878 63.4454C50.6026 61.5631 47.8201 59.8389 45.0178 58.1623C38.0121 53.939 30.8681 49.8422 23.6059 45.8879C22.3823 45.2235 21.1193 44.5434 19.659 44.3853C18.1986 44.2271 16.5212 44.7649 16.0475 45.8721C26.6252 56.2959 39.6105 65.1536 54.1547 71.8286C55.2204 72.319 55.6744 72.4297 56.4638 73.1257C56.7598 73.3788 57.2926 73.3946 57.6873 73.2364C58.082 73.0782 58.3582 72.7777 58.595 72.4929C60.4895 70.231 61.0618 67.4472 61.5947 64.7583C61.9499 62.9551 62.2656 61.2467 63.2129 59.5701C63.4694 59.0797 63.8049 58.5893 63.7852 58.0515C63.7654 57.0867 62.6603 56.3591 61.6144 55.8371Z" fill="#A88B71"/>
<path d="M74.2049 19.9471C75.6258 19.8364 77.0862 20.5323 77.6782 21.5763C77.8361 21.8452 77.9348 22.13 78.1913 22.3514C79.2965 23.2847 81.2502 21.6079 82.75 22.0825C84.0722 22.4937 83.8353 24.0755 84.5458 25.072C85.2365 26.0527 86.7757 26.3532 88.0979 26.6696C89.4399 27.0017 90.9397 27.6186 91.0976 28.7417C91.1568 29.1687 91.0384 29.6591 91.3937 29.9596C91.6305 30.1495 91.9856 30.2127 92.3014 30.2759C95.0642 30.8454 96.8995 33.4078 96.1299 35.6064C96.0312 35.8911 95.8931 36.1759 95.9326 36.4765C96.0707 37.2673 97.3139 37.473 98.2217 37.7735C101.004 38.6751 101.833 41.6487 101.004 43.9423C100.925 44.1796 100.827 44.4168 100.906 44.6541C101.024 45.0021 101.498 45.176 101.873 45.3975C103.136 46.1567 103.274 47.7068 102.603 48.8615C101.932 50.0162 100.649 50.8387 99.4255 51.6454C100.294 52.7526 100.097 54.3186 98.9914 55.2834C97.8665 56.2325 95.9325 56.4856 94.4919 55.8529C94.1959 56.4382 93.2882 56.6438 92.4988 56.7545C90.8411 56.976 89.1833 57.1657 87.5059 57.2923C86.2429 57.3872 84.5457 57.229 84.2892 56.2325C83.263 56.4382 82.1974 56.628 81.1317 56.5172C80.0858 56.4065 79.0201 55.9162 78.6452 55.1253C78.4084 54.6191 78.4478 54.0023 78.0137 53.5752C77.5006 53.1007 76.5336 53.1006 75.9021 52.721C75.1324 52.2465 75.0929 51.3132 75.2508 50.5382C75.4284 49.7631 75.7245 48.9565 75.4087 48.213C75.014 47.2798 73.7905 46.7895 73.0012 46.0302C72.1526 45.2235 71.8565 44.0688 72.2315 43.0407C72.5078 42.2656 73.1589 41.5064 72.9024 40.7314C72.6853 40.0829 71.9354 39.6716 71.4421 39.1338C70.4751 38.0582 70.6527 36.603 70.9685 35.306C71.0869 34.7998 71.225 34.2462 70.9685 33.7875C70.8106 33.5186 70.5343 33.2971 70.3172 33.0598C69.5475 32.2215 69.4489 31.0352 70.0804 30.1336C70.3567 29.7382 70.7513 29.3902 70.9289 28.9473C71.1066 28.4886 71.0276 27.9982 70.9487 27.5395C70.7514 26.4639 70.554 25.3725 70.3567 24.2969C70.0409 22.4779 71.8565 20.1211 74.2049 19.9471Z" fill="#C69C6D"/>
</g>
</svg>
