<svg width="85" height="97" viewBox="0 0 85 97" fill="none" xmlns="http://www.w3.org/2000/svg">
<g opacity="0.7">
<path d="M23.7425 61.3777L17.0297 58.1703L13.2911 63.0563L21.6667 67.0831L23.7425 61.3777Z" fill="#FFC9A6"/>
<path d="M6.32002 55.9721C5.77266 59.2894 8.06536 62.4568 11.4425 63.0464C14.8195 63.6359 18.0004 61.4177 18.5478 58.0904C19.0951 54.7731 16.8024 51.6057 13.4253 51.0162C10.0483 50.4266 6.86738 52.6448 6.32002 55.9721Z" fill="#FFC9A6"/>
<path d="M0.175177 48.8079C-0.12432 49.4474 0.175166 50.2168 0.825798 50.5265L15.6044 57.331C16.2551 57.6308 17.04 57.351 17.3395 56.7115C17.639 56.072 17.3395 55.2927 16.6888 54.9929L1.91019 48.1885C1.24923 47.8887 0.474674 48.1685 0.175177 48.8079Z" fill="black"/>
<path d="M52.298 42.4331L37.8705 68.0123L20.9438 59.0896L18.3516 66.9732L39.6778 80.8918C41.3819 81.8011 43.4887 81.1616 44.3355 79.463L59.7958 60.6483L52.298 42.4331Z" fill="#EAD1B9"/>
<path d="M62.8321 32.2114L63.5034 31.7518C65.7341 30.233 69.1216 31.3621 67.5828 29.1539L54.5805 10.3692L46.556 15.8348L57.2243 31.1823C58.4946 33.0008 61.0041 33.4604 62.8321 32.2114Z" fill="#FCC9A7"/>
<path d="M39.8121 19.6217C42.5179 24.7575 48.921 26.7359 54.0951 24.0581C59.2795 21.3802 61.283 15.0454 58.5772 9.91957C55.3137 3.7346 50.026 2.5156 44.2942 5.48318C39.1098 8.161 37.1063 14.4958 39.8121 19.6217Z" fill="#FCC9A7"/>
<path d="M52.8764 29.6235C55.3343 28.3546 56.2948 25.347 55.0038 22.909L50.3152 14.0162L39.7398 19.4818L43.561 26.7359C45.327 30.0732 49.4993 31.3721 52.8764 29.6235Z" fill="#FCC9A7"/>
<path d="M41.1857 21.5601L40.7106 25.6068C40.6796 26.2463 41.3716 26.646 41.9706 26.3362L44.5834 25.5569L41.1857 21.5601Z" fill="#FCC9A7"/>
<path d="M55.0348 16.8739L60.2812 18.6025C60.2812 18.6025 64.2883 2.04599 51.4409 0.00764676C51.4409 0.00764676 40.7003 -0.61185 36.7035 8.28091C35.5675 10.8188 35.6708 14.7556 38.6141 15.3452C38.6141 15.3452 38.6348 15.565 38.6141 15.3452C38.4179 13.117 39.2544 11.1786 39.2544 11.1786C39.2544 11.1786 41.7537 17.0838 46.8245 16.5142L48.291 18.7024C48.8486 19.5318 50.5424 19.212 51.4305 18.7424L52.4323 18.2228L51.0897 15.6649L55.0348 16.8739Z" fill="#0B1226"/>
<path d="M50.1293 13.8064C49.0552 14.9855 49.1585 16.814 50.3462 17.8731C51.5442 18.9323 53.3825 18.8423 54.4565 17.6533C55.5306 16.4743 55.4273 14.6457 54.2396 13.5866C53.0417 12.5275 51.2033 12.6174 50.1293 13.8064Z" fill="#FCC9A7"/>
<path d="M48.4769 79.9726L48.6731 180.051H60.4568L64.278 92.3126L48.4769 79.9726Z" fill="#0C0C0C"/>
<path d="M52.99 34.9692C52.99 34.9692 54.8076 30.9824 56.6769 30.0732C58.5462 29.1639 67.0457 27.9749 67.0457 27.9749C67.0457 27.9749 76.7329 34.3297 76.5883 45.7105L75.7414 79.9726H48.4665C48.4769 79.9726 46.4423 49.0377 52.99 34.9692Z" fill="#F7E0C6"/>
<path d="M48.4769 79.9726L53.2998 94.4208L59.2278 134.049L71.6105 181.06L83.1256 179.751L73.614 133.539L73.8825 98.9072C73.8825 98.9072 74.4609 95.7298 72.8085 79.9826H48.4769V79.9726Z" fill="#232322"/>
<path d="M76.3405 44.5814V102.364H66.9011L63.5654 41.6138C63.4104 38.7261 64.6601 35.8885 67.0251 34.1998C69.7205 32.2814 73.3352 32.1115 75.886 41.2941C76.1959 42.3632 76.3405 43.4723 76.3405 44.5814Z" fill="#F7E0C6"/>
<path d="M64.2779 49.6173L65.6825 79.9726L64.2779 49.6173Z" stroke="#E8CCB1" stroke-width="0.7847" stroke-miterlimit="10" stroke-linecap="round" stroke-linejoin="round"/>
<path d="M42.6418 12.2877C42.6418 12.2877 35.0408 23.1488 32.5622 13.8364C30.0836 4.52398 46.0499 7.29173 46.0499 7.29173L42.6418 12.2877Z" fill="#0B1226"/>
<path d="M67.0457 27.9749C67.0457 27.9749 55.4996 39.1958 54.095 32.9109C54.095 32.9109 55.3446 29.8833 59.7855 27.6252L67.0457 27.9749Z" fill="#FCC9A7"/>
</g>
</svg>
